<?xml version="1.0" standalone="no"?>
<!DOCTYPE svg PUBLIC "-//W3C//DTD SVG 20010904//EN"
 "http://www.w3.org/TR/2001/REC-SVG-20010904/DTD/svg10.dtd">
<svg version="1.0" xmlns="http://www.w3.org/2000/svg"
 width="1116.000000pt" height="1116.000000pt" viewBox="0 0 1116.000000 1116.000000"
 preserveAspectRatio="xMidYMid meet">
<metadata>
Created by potrace 1.11, written by Peter Selinger 2001-2013
</metadata>
<g transform="translate(0.000000,1116.000000) scale(0.100000,-0.100000)"
fill="#000000" stroke="none">
<path d="M5618 8735 c-2 -1 -37 -6 -78 -9 -41 -3 -86 -8 -100 -11 -14 -2 -47
-6 -73 -9 -27 -3 -53 -8 -58 -11 -5 -3 -24 -7 -42 -9 -18 -2 -43 -6 -54 -10
-12 -4 -31 -9 -42 -11 -42 -10 -57 -14 -131 -38 -346 -112 -635 -308 -823
-560 -46 -62 -127 -190 -127 -202 0 -2 -13 -32 -29 -67 -107 -234 -140 -530
-96 -848 11 -74 56 -273 68 -295 6 -11 10 -21 9 -22 -1 -2 -1 -5 -1 -8 1 -3 2
-8 3 -12 5 -22 29 -92 42 -120 8 -17 14 -36 14 -42 0 -7 9 -30 20 -51 11 -22
19 -40 16 -40 -8 0 190 -387 236 -460 52 -84 144 -227 150 -235 5 -5 56 -75
114 -155 59 -80 111 -146 115 -148 12 -5 -87 -82 -163 -127 -88 -52 -252 -129
-298 -140 -8 -2 -42 -10 -75 -19 -100 -26 -171 -33 -288 -31 -212 5 -408 68
-577 186 -101 70 -94 47 -60 209 29 135 33 145 68 181 100 100 133 242 80 350
-28 54 -29 38 21 274 12 55 24 111 27 125 2 14 7 32 9 40 2 8 7 31 10 50 3 19
10 51 15 70 5 19 11 52 14 74 4 21 8 42 11 46 3 4 7 23 9 41 3 19 14 77 26
129 22 102 28 127 34 163 2 12 9 45 16 72 21 89 23 133 8 148 -46 46 -117 52
-152 14 -23 -25 -25 -25 -77 -12 -30 8 -70 17 -89 20 -19 4 -39 8 -45 9 -22 6
-91 20 -105 21 -8 1 -22 5 -30 8 -13 4 -52 12 -170 34 -14 2 -45 9 -70 14 -25
6 -56 13 -69 15 -13 3 -51 11 -85 19 -33 8 -62 12 -65 10 -2 -3 -9 -1 -15 4
-6 5 -29 11 -51 15 -54 8 -96 16 -117 22 -10 3 -30 7 -45 10 -16 3 -46 10 -68
16 -22 6 -51 12 -65 13 -14 1 -35 5 -47 9 -11 4 -34 9 -49 11 -16 3 -47 9 -69
14 -50 11 -231 50 -265 56 -14 3 -34 7 -46 10 -12 3 -38 7 -59 11 -21 3 -49
10 -62 15 -14 5 -44 9 -68 9 -34 0 -48 -5 -63 -24 -15 -20 -55 -179 -88 -356
-3 -14 -9 -41 -14 -60 -5 -19 -12 -48 -14 -65 -7 -35 -12 -61 -20 -95 -3 -14
-8 -36 -10 -50 -2 -14 -19 -90 -36 -170 -17 -80 -33 -154 -35 -165 -1 -11 -8
-43 -15 -72 -16 -72 -10 -112 20 -134 14 -10 72 -28 130 -40 58 -12 110 -22
115 -23 6 -2 35 -8 65 -14 30 -6 67 -14 82 -16 15 -3 31 -7 35 -9 5 -3 25 -8
45 -11 21 -3 81 -15 135 -27 54 -12 107 -23 118 -25 11 -2 31 -6 45 -9 14 -3
45 -10 70 -15 25 -5 119 -25 210 -44 91 -19 176 -37 190 -40 25 -5 92 -19 140
-30 28 -6 113 -24 148 -31 13 -2 31 -6 40 -9 9 -3 35 -8 56 -12 21 -3 48 -9
60 -14 21 -8 21 -8 1 -17 -77 -32 -231 -166 -282 -246 -44 -68 -75 -140 -90
-207 -18 -80 -3 -246 30 -325 6 -16 12 -32 12 -35 4 -40 119 -212 188 -282 63
-65 73 -83 45 -85 -21 -2 -48 -20 -48 -34 0 -4 -5 -20 -12 -36 -6 -15 -13 -37
-15 -47 -2 -11 -8 -25 -14 -33 -6 -7 -9 -13 -6 -13 3 0 -5 -27 -18 -60 -13
-33 -21 -60 -18 -60 3 0 -2 -11 -11 -25 -9 -14 -14 -25 -11 -25 2 0 -4 -21
-14 -47 -10 -27 -20 -52 -21 -58 -2 -5 -8 -23 -14 -40 -5 -16 -9 -33 -8 -37 1
-5 -10 -9 -26 -10 -46 -2 -50 -3 -58 -11 -4 -4 -16 -7 -26 -7 -10 0 -26 -4
-36 -9 -9 -4 -35 -16 -57 -27 -76 -35 -141 -81 -203 -144 -34 -35 -62 -69 -62
-75 0 -7 -7 -19 -17 -26 -14 -12 -53 -86 -59 -111 -1 -5 -2 -9 -4 -10 -1 -2
-4 -14 -6 -28 -10 -58 -10 -80 -1 -80 5 0 3 -8 -4 -17 -12 -14 -12 -16 0 -8
11 6 13 4 8 -8 -3 -9 1 -23 9 -32 9 -8 13 -15 9 -15 -3 0 2 -12 12 -27 24 -37
105 -113 120 -113 7 0 13 -4 13 -9 0 -10 118 -68 168 -83 29 -8 32 -11 20 -26
-11 -15 -11 -15 8 0 18 16 23 16 48 3 16 -8 36 -15 45 -15 9 0 22 -5 29 -12 8
-8 12 -8 12 -1 0 10 49 -2 75 -19 6 -4 17 -3 25 2 8 5 19 5 25 1 5 -5 39 -12
75 -16 97 -11 412 -13 433 -3 12 6 17 5 17 -4 0 -10 3 -10 9 1 5 8 16 11 24 8
8 -3 20 0 26 6 6 6 11 8 11 4 0 -3 11 -2 25 3 16 6 25 6 25 0 0 -6 5 -10 11
-10 5 0 7 5 4 10 -3 6 2 10 12 10 21 0 90 23 147 50 53 24 81 70 68 110 -6 15
-8 31 -5 34 4 3 1 6 -6 6 -7 0 -9 5 -5 12 4 6 3 8 -4 4 -6 -3 -19 4 -29 16
-10 13 -27 24 -38 26 -41 6 -46 11 -36 31 7 13 18 17 31 14 11 -3 18 -8 15
-12 -2 -4 6 -7 18 -6 12 1 38 -4 57 -11 19 -7 48 -15 63 -18 17 -4 25 -11 21
-18 -5 -7 -2 -8 11 -1 22 13 57 5 48 -11 -4 -7 -1 -7 7 1 8 7 19 9 29 4 60
-31 438 -43 482 -15 5 3 9 -1 9 -8 0 -9 3 -9 10 2 8 12 13 13 29 3 17 -11 19
-10 15 1 -4 10 0 14 12 12 10 -2 40 6 67 16 53 20 78 17 31 -4 -16 -7 -31 -15
-34 -19 -4 -4 -40 -20 -47 -20 -1 0 -23 -11 -49 -24 -26 -13 -51 -22 -56 -19
-4 3 -8 1 -8 -4 0 -14 -169 -74 -182 -66 -7 4 -8 2 -4 -4 7 -11 3 -13 -36 -16
-7 -1 -16 -5 -19 -9 -3 -4 -16 -9 -27 -10 -12 -1 -22 -5 -22 -9 0 -4 -3 -7 -7
-6 -5 1 -20 -2 -34 -6 -14 -4 -34 -9 -45 -11 -10 -2 -20 -4 -21 -5 -2 -2 -6
-3 -10 -5 -5 -1 -15 -4 -23 -8 -8 -3 -35 -12 -60 -18 -53 -15 -46 -13 -90 -30
-19 -7 -43 -13 -52 -13 -10 1 -16 -2 -13 -5 2 -4 -29 -23 -68 -43 -40 -21 -81
-45 -92 -55 -11 -10 -35 -30 -53 -46 -19 -15 -30 -27 -26 -27 4 0 0 -8 -8 -17
-46 -53 -63 -127 -42 -180 7 -18 11 -33 9 -33 -2 0 7 -11 21 -25 14 -14 29
-25 34 -25 4 0 10 -4 12 -8 2 -5 26 -20 55 -34 29 -14 49 -29 45 -33 -4 -5 -2
-5 5 -1 7 4 29 0 49 -9 20 -8 49 -16 65 -17 16 -1 29 -5 29 -8 0 -3 10 -6 23
-7 12 -1 32 -3 44 -6 33 -8 124 -20 248 -33 127 -13 437 -7 575 11 19 3 56 7
82 10 25 3 73 13 105 22 32 9 68 17 80 17 11 1 19 4 17 7 -2 3 8 12 21 19 14
7 25 21 25 30 0 37 -28 45 -169 47 -75 1 -136 2 -136 3 0 1 -40 3 -90 5 -49 2
-119 6 -155 9 -36 4 -94 9 -130 12 -35 3 -73 8 -85 11 -11 2 -33 7 -50 10 -16
3 -34 6 -40 8 -5 1 -27 5 -47 10 -21 4 -38 11 -38 17 0 5 -4 7 -9 3 -6 -3 -15
3 -20 14 -8 14 -7 20 4 25 8 3 15 0 15 -7 0 -8 3 -8 8 -1 4 6 61 10 147 11
201 1 354 7 349 14 -2 3 10 6 26 7 16 0 37 5 48 11 11 6 22 8 24 6 3 -3 21 1
40 9 20 9 38 12 42 9 3 -4 6 -1 6 6 0 7 6 11 14 8 8 -3 16 -1 18 5 2 5 18 11
36 13 18 1 36 6 40 10 4 5 1 5 -7 0 -10 -6 -12 -4 -7 4 5 7 14 10 21 7 8 -3
19 1 25 9 9 11 41 23 77 28 5 0 14 7 21 14 12 12 34 17 55 14 4 0 7 3 7 8 0 5
10 13 22 17 13 4 52 21 88 38 36 17 73 30 82 30 10 -1 15 2 13 7 -6 9 54 41
65 34 4 -3 11 2 14 11 4 9 13 14 21 10 8 -3 14 -1 12 3 -1 5 0 8 3 8 3 -1 26
13 52 31 26 18 51 32 57 32 6 0 11 5 11 11 0 6 7 8 16 5 10 -4 13 -2 8 6 -5 8
-1 9 12 4 10 -4 15 -4 11 0 -4 4 -2 13 4 21 9 10 15 11 26 2 10 -9 12 -9 8 2
-7 19 101 114 108 96 3 -6 6 -1 6 12 1 17 5 21 17 17 9 -3 12 -2 9 5 -8 13 14
41 26 33 5 -3 9 -2 8 3 -2 14 13 53 21 53 4 0 11 12 14 26 4 14 12 24 19 21 7
-3 13 6 13 22 1 14 4 35 7 46 3 11 6 22 6 25 2 8 71 -70 71 -80 0 -6 5 -10 10
-10 6 0 10 -5 10 -11 0 -5 -5 -7 -12 -3 -7 4 -8 3 -4 -4 4 -6 13 -9 20 -6 9 3
17 -3 21 -15 3 -12 11 -21 17 -21 6 0 9 -3 5 -6 -3 -3 7 -20 23 -38 17 -17 30
-37 30 -43 0 -7 5 -13 11 -13 6 0 9 -9 6 -19 -3 -12 0 -18 7 -15 6 2 16 -6 22
-18 27 -57 60 -114 67 -119 5 -3 9 -12 10 -20 2 -8 10 -25 20 -39 9 -13 17
-30 17 -36 0 -7 6 -15 13 -17 9 -4 9 -6 0 -6 -7 -1 -1 -13 13 -28 15 -17 22
-33 18 -45 -4 -12 -1 -18 8 -16 7 2 12 -3 11 -10 -2 -6 2 -12 8 -12 5 0 7 -5
4 -10 -3 -5 -1 -10 5 -10 6 0 8 -4 5 -10 -3 -5 -2 -10 3 -10 5 0 12 -8 15 -17
4 -10 18 -36 32 -58 14 -22 31 -52 37 -67 7 -16 16 -28 20 -28 4 0 14 -12 22
-27 14 -27 163 -186 179 -190 4 -1 22 -14 41 -28 18 -14 38 -25 44 -25 7 0 12
-4 12 -10 0 -5 6 -10 14 -10 8 0 21 -7 30 -15 8 -9 17 -15 18 -15 4 2 52 -17
93 -35 60 -26 115 -45 115 -39 0 4 6 2 13 -4 30 -24 223 -44 447 -45 153 -1
234 7 379 37 119 25 232 91 312 183 31 35 80 151 85 203 8 68 5 160 -7 181 -6
12 -9 30 -6 40 3 10 1 17 -3 14 -5 -3 -16 10 -25 28 -19 40 -78 107 -94 107
-6 0 -11 4 -11 9 0 5 -17 15 -37 22 -21 6 -42 14 -48 18 -5 3 -17 6 -25 6 -8
0 -21 4 -27 8 -8 5 -13 4 -13 -2 0 -6 -7 -8 -15 -4 -9 3 -24 -2 -35 -12 -18
-16 -19 -15 -43 34 -15 32 -20 52 -13 55 6 2 3 5 -7 5 -10 1 -16 5 -13 10 4 5
1 11 -5 13 -6 2 -12 15 -12 30 -1 14 -5 24 -9 22 -9 -6 -21 34 -13 46 3 6 -1
13 -10 16 -9 4 -22 22 -30 41 -18 44 -18 43 1 43 11 0 14 -6 10 -18 -6 -16 -5
-16 7 0 10 13 27 17 71 16 32 -1 60 -6 62 -10 3 -5 11 -5 17 -1 17 10 77 11
83 1 3 -5 10 -5 16 -2 13 8 88 12 88 5 0 -4 14 -6 30 -6 17 0 30 4 30 8 0 5 5
5 12 1 6 -4 32 -8 57 -8 25 -1 52 -6 60 -10 9 -6 12 -5 7 2 -4 7 13 10 55 9
33 -1 66 1 72 5 6 4 18 1 26 -5 10 -8 13 -8 8 -1 -5 8 6 12 31 12 63 2 119 9
132 17 9 6 11 4 5 -5 -6 -10 -4 -11 6 -4 8 4 23 9 34 10 11 0 31 4 44 8 18 6
22 5 15 -5 -6 -11 -5 -12 7 -2 15 12 41 18 130 27 25 3 52 7 60 10 7 3 32 8
54 10 22 3 51 7 65 10 14 3 41 7 61 10 20 3 42 8 50 10 15 5 82 17 114 20 11
1 25 4 30 7 6 4 22 6 38 5 15 -1 27 1 27 5 0 6 7 8 65 11 22 2 42 6 45 9 3 4
25 10 50 13 45 6 75 11 128 21 85 17 151 17 173 1 13 -9 20 -16 16 -16 -5 0
-1 -7 7 -16 12 -12 13 -20 5 -35 -22 -42 -29 -103 -16 -141 13 -39 67 -54 127
-37 25 7 47 13 50 14 27 6 120 67 120 79 0 4 8 18 17 33 29 44 33 122 10 161
-5 6 -5 17 -1 24 4 7 3 8 -5 4 -6 -4 -14 0 -18 10 -7 20 -69 78 -122 114 -20
14 -37 28 -39 33 -2 4 -9 7 -16 7 -7 0 -22 9 -34 20 -12 12 -22 18 -22 15 0
-3 -18 4 -40 15 -21 11 -46 20 -54 20 -8 0 -21 7 -30 15 -8 9 -18 16 -21 15
-25 -1 -35 1 -31 8 3 5 -5 8 -17 7 -12 -1 -36 3 -54 10 -17 8 -34 11 -37 7 -3
-3 -6 -1 -6 4 0 5 -12 10 -27 11 -47 4 -226 34 -256 43 -19 6 -25 5 -21 -2 5
-7 2 -8 -6 -3 -13 8 -119 16 -255 19 -38 0 -73 6 -77 11 -5 6 -8 5 -8 -2 0 -9
-7 -10 -24 -3 -15 5 -27 5 -34 -2 -6 -6 -12 -6 -16 1 -4 7 -15 7 -30 1 -13 -5
-26 -7 -29 -4 -2 2 -181 6 -398 8 -217 2 -401 5 -409 7 -8 2 -18 9 -22 14 -5
6 -8 6 -8 -1 0 -6 -10 -10 -22 -8 -13 1 -23 3 -23 4 0 2 -14 3 -112 13 -18 2
-33 7 -33 10 0 4 2 7 5 7 3 0 28 11 55 25 28 14 56 23 62 19 7 -4 8 -3 4 5 -4
6 0 14 11 18 10 4 34 17 54 29 20 13 40 20 43 17 3 -4 6 -1 6 5 0 7 7 12 15
12 8 0 15 3 15 8 0 4 10 12 23 18 35 17 92 49 97 54 3 3 48 34 100 69 52 36
97 68 98 73 2 4 9 8 16 8 7 0 21 9 31 20 10 11 22 20 26 20 8 0 20 10 125 111
67 65 78 77 121 139 73 108 123 239 139 370 10 78 3 264 -10 277 -3 4 -6 16
-6 28 0 37 -60 206 -105 295 -48 96 -145 247 -195 303 -55 63 -146 108 -270
133 -14 3 -32 12 -41 20 -18 16 -124 25 -158 12 -13 -5 -29 -15 -35 -22 -6 -7
-33 -22 -61 -32 -70 -27 -149 -107 -168 -170 -8 -27 -13 -50 -12 -52 1 -2 18
6 37 18 19 11 60 29 91 39 48 17 57 18 57 5 0 -8 6 -17 14 -20 47 -18 35 -233
-13 -235 -101 -4 -267 -124 -322 -231 -44 -87 -56 -139 -54 -233 3 -109 8
-131 46 -206 50 -99 129 -174 242 -226 26 -12 48 -22 50 -22 8 3 97 -14 94
-17 -15 -16 -256 -22 -352 -10 -88 12 -227 47 -302 77 -13 5 -33 13 -45 17
-98 36 -352 183 -385 224 -10 12 -2 28 48 94 33 43 65 86 72 94 7 8 28 39 46
68 19 28 38 52 43 52 4 0 8 4 8 10 0 5 26 49 58 97 33 48 65 99 72 113 7 14
16 27 19 30 3 3 13 19 22 35 9 17 31 57 49 90 19 33 53 101 78 150 24 50 50
102 58 116 7 14 11 29 7 33 -3 3 -2 6 4 6 6 0 14 11 17 25 3 13 10 34 15 47 5
13 9 27 9 32 0 5 4 12 9 15 12 9 94 267 109 346 2 11 6 31 9 45 10 50 23 135
23 150 0 8 3 26 7 40 8 30 8 335 1 370 -3 13 -8 40 -11 60 -9 60 -24 126 -44
188 -5 18 -11 36 -12 40 -8 34 -62 159 -91 210 -176 319 -483 569 -867 706
-122 43 -194 63 -336 91 -63 12 -95 17 -215 32 -41 5 -407 12 -412 8z m2459
-2571 c62 -47 150 -182 189 -287 l14 -39 -37 33 c-20 17 -65 45 -99 61 -54 25
-62 33 -73 68 -6 21 -19 46 -27 55 -17 16 -25 73 -17 113 6 28 9 28 50 -4z
m-89 -65 c2 -13 1 -21 -3 -17 -4 4 -18 3 -31 -2 -17 -7 -24 -6 -25 3 0 6 -2
19 -4 27 -2 11 6 15 29 14 25 -1 32 -6 34 -25z m36 -111 c-3 -5 -25 -8 -50 -8
-38 0 -44 3 -44 21 0 15 5 19 18 15 10 -4 27 0 38 8 17 13 20 12 31 -7 6 -12
9 -25 7 -29z m-4150 -1647 c-5 -6 -64 -11 -64 -6 0 25 13 32 40 22 16 -6 27
-13 24 -16z m3201 -1091 c-3 -4 2 -11 11 -14 9 -4 14 -9 11 -13 -7 -6 22 -63
36 -74 5 -3 8 -9 8 -13 -1 -3 6 -20 15 -37 8 -17 13 -33 10 -37 -3 -3 -6 0 -6
6 0 6 -7 18 -16 26 -18 19 -94 161 -94 177 0 8 5 8 15 -1 8 -7 13 -16 10 -20z"/>
<path d="M8350 4559 c0 -5 5 -7 10 -4 6 3 10 8 10 11 0 2 -4 4 -10 4 -5 0 -10
-5 -10 -11z"/>
<path d="M7835 4361 c-3 -5 -2 -12 3 -15 5 -3 9 1 9 9 0 17 -3 19 -12 6z"/>
<path d="M5774 3769 c-3 -6 -2 -15 3 -20 5 -5 9 -1 9 11 0 23 -2 24 -12 9z"/>
<path d="M9204 3771 c4 -6 3 -11 -3 -11 -5 0 -9 -9 -8 -19 1 -13 8 -18 24 -16
42 4 42 24 1 46 -15 8 -19 8 -14 0z m28 -33 c-6 -6 -16 -7 -22 -3 -9 6 -9 9 1
16 17 10 34 0 21 -13z"/>
<path d="M5800 3766 c0 -2 8 -10 18 -17 15 -13 16 -12 3 4 -13 16 -21 21 -21
13z"/>
<path d="M9674 3725 c3 -15 1 -23 -5 -20 -5 4 -7 10 -4 15 3 5 0 12 -7 16 -7
4 -10 4 -6 -1 4 -4 3 -14 -3 -22 -6 -7 -10 -13 -8 -14 42 -8 47 -7 52 11 3 11
1 20 -5 20 -5 0 -6 5 -3 10 3 6 1 10 -5 10 -6 0 -8 -11 -6 -25z"/>
<path d="M5748 3703 c7 -3 16 -2 19 1 4 3 -2 6 -13 5 -11 0 -14 -3 -6 -6z"/>
<path d="M2033 3685 c0 -8 4 -12 9 -9 5 3 6 10 3 15 -9 13 -12 11 -12 -6z"/>
<path d="M5809 3683 c-13 -16 -12 -17 4 -4 16 13 21 21 13 21 -2 0 -10 -8 -17
-17z"/>
<path d="M5744 3678 c-4 -7 -3 -8 5 -4 6 4 20 2 29 -6 15 -12 16 -11 3 5 -16
20 -27 22 -37 5z"/>
<path d="M5831 3667 c-13 -21 -12 -21 5 -5 10 10 16 20 13 22 -3 3 -11 -5 -18
-17z"/>
<path d="M2116 3647 c3 -10 9 -15 12 -12 3 3 0 11 -7 18 -10 9 -11 8 -5 -6z"/>
<path d="M5743 3644 c9 -11 15 -23 12 -26 -3 -2 2 -5 10 -5 10 0 12 4 5 12 -5
7 -6 16 -2 21 4 5 3 6 -2 2 -5 -4 -16 -2 -25 4 -12 10 -12 7 2 -8z"/>
<path d="M3713 3635 c0 -8 4 -12 9 -9 5 3 6 10 3 15 -9 13 -12 11 -12 -6z"/>
<path d="M5853 3635 c0 -8 4 -12 9 -9 4 3 8 9 8 15 0 5 -4 9 -8 9 -5 0 -9 -7
-9 -15z"/>
<path d="M7715 3641 c-3 -5 -2 -12 3 -15 5 -3 9 1 9 9 0 17 -3 19 -12 6z"/>
<path d="M5710 3626 c0 -2 7 -7 16 -10 8 -3 12 -2 9 4 -6 10 -25 14 -25 6z"/>
<path d="M2150 3606 c0 -2 7 -7 16 -10 8 -3 12 -2 9 4 -6 10 -25 14 -25 6z"/>
<path d="M3734 3596 c1 -8 5 -18 8 -22 4 -3 5 1 4 10 -1 8 -5 18 -8 22 -4 3
-5 -1 -4 -10z"/>
<path d="M5875 3600 c-2 -3 10 -6 26 -6 16 -1 29 1 29 5 0 8 -50 9 -55 1z"/>
<path d="M3776 3581 c-3 -5 2 -15 12 -22 15 -12 16 -12 5 2 -7 9 -10 19 -6 22
3 4 4 7 0 7 -3 0 -8 -4 -11 -9z"/>
<path d="M2110 3560 c0 -5 5 -10 10 -10 6 0 10 5 10 10 0 6 -4 10 -10 10 -5 0
-10 -4 -10 -10z"/>
<path d="M4256 3558 c3 -5 10 -6 15 -3 13 9 11 12 -6 12 -8 0 -12 -4 -9 -9z"/>
<path d="M5893 3555 c0 -8 4 -12 9 -9 4 3 8 9 8 15 0 5 -4 9 -8 9 -5 0 -9 -7
-9 -15z"/>
<path d="M5930 3561 c0 -6 4 -12 8 -15 5 -3 9 1 9 9 0 8 -4 15 -9 15 -4 0 -8
-4 -8 -9z"/>
<path d="M7839 3553 c-13 -16 -12 -17 4 -4 9 7 17 15 17 17 0 8 -8 3 -21 -13z"/>
<path d="M3734 3536 c1 -8 5 -18 8 -22 4 -3 5 1 4 10 -1 8 -5 18 -8 22 -4 3
-5 -1 -4 -10z"/>
<path d="M3855 3540 c3 -5 8 -10 11 -10 2 0 4 5 4 10 0 6 -5 10 -11 10 -5 0
-7 -4 -4 -10z"/>
<path d="M8790 3536 c0 -2 8 -10 18 -17 15 -13 16 -12 3 4 -13 16 -21 21 -21
13z"/>
<path d="M4116 3518 c3 -5 10 -6 15 -3 13 9 11 12 -6 12 -8 0 -12 -4 -9 -9z"/>
<path d="M5595 3521 c-3 -5 -2 -12 3 -15 5 -3 9 1 9 9 0 17 -3 19 -12 6z"/>
<path d="M5679 3528 c-5 -18 -6 -38 -1 -34 7 8 12 36 6 36 -2 0 -4 -1 -5 -2z"/>
<path d="M3795 3499 c-3 -4 2 -6 10 -5 21 3 28 13 10 13 -9 0 -18 -4 -20 -8z"/>
<path d="M3914 3502 c4 -3 14 -7 22 -8 9 -1 13 0 10 4 -4 3 -14 7 -22 8 -9 1
-13 0 -10 -4z"/>
<path d="M4050 3499 c0 -5 5 -7 10 -4 6 3 10 8 10 11 0 2 -4 4 -10 4 -5 0 -10
-5 -10 -11z"/>
<path d="M5550 3496 c0 -2 8 -10 18 -17 15 -13 16 -12 3 4 -13 16 -21 21 -21
13z"/>
<path d="M3756 3473 c-6 -14 -5 -15 5 -6 7 7 10 15 7 18 -3 3 -9 -2 -12 -12z"/>
<path d="M5876 3473 c-6 -14 -5 -15 5 -6 7 7 10 15 7 18 -3 3 -9 -2 -12 -12z"/>
<path d="M5910 3480 c0 -5 5 -10 10 -10 6 0 10 5 10 10 0 6 -4 10 -10 10 -5 0
-10 -4 -10 -10z"/>
<path d="M5950 3481 c0 -6 4 -13 10 -16 6 -3 7 1 4 9 -7 18 -14 21 -14 7z"/>
<path d="M3933 3465 c0 -8 4 -12 9 -9 5 3 6 10 3 15 -9 13 -12 11 -12 -6z"/>
<path d="M4053 3465 c0 -8 4 -12 9 -9 5 3 6 10 3 15 -9 13 -12 11 -12 -6z"/>
<path d="M5660 3465 c0 -2 6 -8 13 -14 10 -8 14 -7 14 2 0 8 -6 14 -14 14 -7
0 -13 -1 -13 -2z"/>
<path d="M2389 3443 c-13 -16 -12 -17 4 -4 9 7 17 15 17 17 0 8 -8 3 -21 -13z"/>
<path d="M5620 3446 c0 -2 8 -10 18 -17 15 -13 16 -12 3 4 -13 16 -21 21 -21
13z"/>
<path d="M7786 3442 c-3 -5 1 -9 9 -9 8 0 12 4 9 9 -3 4 -7 8 -9 8 -2 0 -6 -4
-9 -8z"/>
<path d="M5975 3420 c3 -5 8 -10 11 -10 2 0 4 5 4 10 0 6 -5 10 -11 10 -5 0
-7 -4 -4 -10z"/>
<path d="M8550 3406 c0 -2 7 -7 16 -10 8 -3 12 -2 9 4 -6 10 -25 14 -25 6z"/>
<path d="M5415 3380 c3 -5 8 -10 11 -10 2 0 4 5 4 10 0 6 -5 10 -11 10 -5 0
-7 -4 -4 -10z"/>
<path d="M5775 3380 c3 -5 8 -10 11 -10 2 0 4 5 4 10 0 6 -5 10 -11 10 -5 0
-7 -4 -4 -10z"/>
<path d="M5810 3380 c0 -5 5 -10 11 -10 5 0 7 5 4 10 -3 6 -8 10 -11 10 -2 0
-4 -4 -4 -10z"/>
<path d="M5996 3367 c3 -10 9 -15 12 -12 3 3 0 11 -7 18 -10 9 -11 8 -5 -6z"/>
<path d="M3716 3358 c3 -5 10 -6 15 -3 13 9 11 12 -6 12 -8 0 -12 -4 -9 -9z"/>
<path d="M5555 3360 c3 -5 8 -10 11 -10 2 0 4 5 4 10 0 6 -5 10 -11 10 -5 0
-7 -4 -4 -10z"/>
<path d="M6036 3362 c-3 -5 1 -9 9 -9 8 0 12 4 9 9 -3 4 -7 8 -9 8 -2 0 -6 -4
-9 -8z"/>
<path d="M5810 3340 c0 -5 5 -10 11 -10 5 0 7 5 4 10 -3 6 -8 10 -11 10 -2 0
-4 -4 -4 -10z"/>
<path d="M1996 3322 c-3 -5 1 -9 9 -9 8 0 12 4 9 9 -3 4 -7 8 -9 8 -2 0 -6 -4
-9 -8z"/>
<path d="M2346 3322 c-3 -5 1 -9 9 -9 8 0 15 4 15 9 0 4 -4 8 -9 8 -6 0 -12
-4 -15 -8z"/>
<path d="M5386 3322 c-3 -5 1 -9 9 -9 8 0 12 4 9 9 -3 4 -7 8 -9 8 -2 0 -6 -4
-9 -8z"/>
<path d="M5913 3315 c0 -8 4 -12 9 -9 5 3 6 10 3 15 -9 13 -12 11 -12 -6z"/>
<path d="M5295 3299 c-3 -4 2 -6 10 -5 21 3 28 13 10 13 -9 0 -18 -4 -20 -8z"/>
<path d="M5446 3302 c-3 -5 1 -9 9 -9 8 0 12 4 9 9 -3 4 -7 8 -9 8 -2 0 -6 -4
-9 -8z"/>
<path d="M5495 3300 c3 -5 8 -10 11 -10 2 0 4 5 4 10 0 6 -5 10 -11 10 -5 0
-7 -4 -4 -10z"/>
<path d="M5690 3300 c0 -5 5 -10 11 -10 5 0 7 5 4 10 -3 6 -8 10 -11 10 -2 0
-4 -4 -4 -10z"/>
<path d="M5735 3300 c3 -5 8 -10 11 -10 2 0 4 5 4 10 0 6 -5 10 -11 10 -5 0
-7 -4 -4 -10z"/>
<path d="M6010 3300 c0 -5 5 -10 11 -10 5 0 7 5 4 10 -3 6 -8 10 -11 10 -2 0
-4 -4 -4 -10z"/>
<path d="M6056 3298 c3 -5 10 -6 15 -3 13 9 11 12 -6 12 -8 0 -12 -4 -9 -9z"/>
<path d="M2675 3291 c-3 -5 -2 -12 3 -15 5 -3 9 1 9 9 0 17 -3 19 -12 6z"/>
<path d="M2590 3286 c0 -2 7 -7 16 -10 8 -3 12 -2 9 4 -6 10 -25 14 -25 6z"/>
<path d="M5414 3276 c1 -8 5 -18 8 -22 4 -3 5 1 4 10 -1 8 -5 18 -8 22 -4 3
-5 -1 -4 -10z"/>
<path d="M5593 3275 c0 -8 4 -12 9 -9 4 3 8 9 8 15 0 5 -4 9 -8 9 -5 0 -9 -7
-9 -15z"/>
<path d="M5814 3276 c1 -8 5 -18 8 -22 4 -3 5 1 4 10 -1 8 -5 18 -8 22 -4 3
-5 -1 -4 -10z"/>
<path d="M8950 3279 c0 -5 5 -7 10 -4 6 3 10 8 10 11 0 2 -4 4 -10 4 -5 0 -10
-5 -10 -11z"/>
<path d="M2386 3262 c-3 -5 1 -9 9 -9 8 0 12 4 9 9 -3 4 -7 8 -9 8 -2 0 -6 -4
-9 -8z"/>
<path d="M5235 3259 c-3 -4 2 -6 10 -5 21 3 28 13 10 13 -9 0 -18 -4 -20 -8z"/>
<path d="M5533 3255 c0 -8 4 -12 9 -9 5 3 6 10 3 15 -9 13 -12 11 -12 -6z"/>
<path d="M5655 3261 c-3 -5 -2 -12 3 -15 5 -3 9 1 9 9 0 17 -3 19 -12 6z"/>
<path d="M5874 3262 c4 -3 14 -7 22 -8 9 -1 13 0 10 4 -4 3 -14 7 -22 8 -9 1
-13 0 -10 -4z"/>
<path d="M5465 3239 c-3 -4 2 -6 10 -5 21 3 28 13 10 13 -9 0 -18 -4 -20 -8z"/>
<path d="M5853 3225 c0 -8 4 -12 9 -9 5 3 6 10 3 15 -9 13 -12 11 -12 -6z"/>
<path d="M5555 3220 c-3 -5 -1 -10 4 -10 6 0 11 5 11 10 0 6 -2 10 -4 10 -3 0
-8 -4 -11 -10z"/>
<path d="M5616 3218 c3 -5 10 -6 15 -3 13 9 11 12 -6 12 -8 0 -12 -4 -9 -9z"/>
<path d="M2915 3200 c3 -5 8 -10 11 -10 2 0 4 5 4 10 0 6 -5 10 -11 10 -5 0
-7 -4 -4 -10z"/>
<path d="M5370 3206 c0 -2 7 -7 16 -10 8 -3 12 -2 9 4 -6 10 -25 14 -25 6z"/>
<path d="M5990 3205 c0 -5 5 -17 10 -25 5 -8 10 -10 10 -5 0 6 -5 17 -10 25
-5 8 -10 11 -10 5z"/>
<path d="M6090 3206 c0 -2 7 -7 16 -10 8 -3 12 -2 9 4 -6 10 -25 14 -25 6z"/>
<path d="M9156 3167 c3 -10 9 -15 12 -12 3 3 0 11 -7 18 -10 9 -11 8 -5 -6z"/>
<path d="M5654 3162 c4 -3 14 -7 22 -8 9 -1 13 0 10 4 -4 3 -14 7 -22 8 -9 1
-13 0 -10 -4z"/>
<path d="M5470 3126 c0 -2 7 -7 16 -10 8 -3 12 -2 9 4 -6 10 -25 14 -25 6z"/>
<path d="M5590 3126 c0 -2 7 -7 16 -10 8 -3 12 -2 9 4 -6 10 -25 14 -25 6z"/>
<path d="M3026 3098 c3 -5 10 -6 15 -3 13 9 11 12 -6 12 -8 0 -12 -4 -9 -9z"/>
<path d="M5424 2922 c4 -3 14 -7 22 -8 9 -1 13 0 10 4 -4 3 -14 7 -22 8 -9 1
-13 0 -10 -4z"/>
<path d="M5835 2889 c-4 -6 -5 -12 -2 -15 2 -3 7 2 10 11 7 17 1 20 -8 4z"/>
<path d="M6073 2885 c0 -8 4 -15 9 -15 4 0 8 4 8 9 0 6 -4 12 -8 15 -5 3 -9
-1 -9 -9z"/>
</g>
</svg>
