<svg width="500" height="158" viewBox="0 0 500 158" fill="none" xmlns="http://www.w3.org/2000/svg">
<ellipse opacity="0.5" cx="139.182" cy="125.277" rx="139.182" ry="32.723" fill="url(#paint0_radial)"/>
<path d="M86.7767 38.7125C87.2492 36.4703 91.7336 37.4153 91.261 39.6575L78.9758 97.9545C78.5033 100.197 74.0189 99.2517 74.4914 97.0095L86.7767 38.7125Z" fill="url(#paint1_linear)"/>
<path d="M87.0213 38.764C87.1194 38.2984 87.4208 37.997 87.8359 37.8311C88.2594 37.6618 88.7974 37.6375 89.3217 37.748C89.8459 37.8585 90.3284 38.0978 90.6476 38.4236C90.9604 38.743 91.1145 39.1403 91.0164 39.606L78.7312 97.903C78.633 98.3686 78.3317 98.67 77.9165 98.836C77.4931 99.0052 76.955 99.0295 76.4308 98.919C75.9065 98.8086 75.424 98.5692 75.1049 98.2435C74.792 97.9241 74.6379 97.5267 74.736 97.0611L87.0213 38.764Z" stroke="black" stroke-opacity="0.15" stroke-width="0.5"/>
<rect x="39.6906" y="28.7898" width="48.1202" height="30.9344" rx="2" transform="rotate(11.9001 39.6906 28.7898)" fill="#E03C31"/>
<path d="M57.8599 53.6946L70.3079 66.8558L36.2167 59.6716L36.1888 59.6659C34.7542 59.3742 33.7674 59.1736 33.7674 56.8969L35.438 48.9695L57.8599 53.6946Z" fill="#001489"/>
<path d="M57.2994 53.5765L35.438 48.9695L35.9105 46.7274L58.893 51.5706L74.2317 67.6827L70.3079 66.8558L57.2994 53.5765Z" fill="white"/>
<path d="M59.4257 43.4867L37.5644 38.8797L37.0919 41.1219L60.0743 45.9651L80.6107 37.4131L76.6868 36.5862L59.4257 43.4867Z" fill="white"/>
<path d="M65.6496 50.0673L86.0679 42.0758L85.5953 44.318L69.5735 50.8942L81.579 63.3767L80.9884 66.1794L65.6496 50.0673Z" fill="#FFB81C"/>
<path d="M86.7767 38.7125L86.0679 42.0758L66.2102 50.1854L81.1065 65.6188L80.3978 68.9821L73.6712 67.5646L58.2143 52.013L35.7924 47.2879L37.2099 40.5613L59.6319 45.2864L80.0501 37.295L86.7767 38.7125Z" fill="#007749"/>
<path d="M69.013 50.776L85.5954 44.318L81.579 63.3767L69.013 50.776Z" fill="black"/>
<path d="M196.338 63.3216C196.205 61.3423 196.958 58.7598 198.083 57.6496C199.189 57.2283 202.025 57.2133 202.882 58.0859C201.316 59.6386 200.816 61.5188 201.137 63.7579C199.392 64.1942 197.631 63.7579 196.338 63.3216Z" fill="#323E7A"/>
<path fill-rule="evenodd" clip-rule="evenodd" d="M201.137 62.8853L196.774 62.8852C197.024 64.4494 197.42 65.0252 198.592 65.5031C200.326 65.506 200.793 64.5326 201.137 62.8853ZM197.865 63.2592L200.046 63.2592C199.874 64.2006 199.641 64.7568 198.774 64.7551C198.188 64.4821 197.99 64.1531 197.865 63.2592Z" fill="#323E7A"/>
<path d="M118.877 84.7005C77.6834 32.7821 105.969 0.0571594 144.417 0.0571594C182.865 0.0571594 211.353 32.7821 170.159 84.7005C188.018 98.7652 208.991 93.4267 208.991 82.0827C208.991 77.7197 204.627 55.9044 191.538 64.6305C192.847 55.9044 205.5 57.2133 209.863 61.14C222.516 76.847 219.68 90.8088 209.863 98.6624C200.701 105.992 191.538 110.006 191.538 110.006C209.863 113.06 236.042 106.952 249.131 118.732C251.79 121.126 252.247 124.437 249.131 126.9C242.15 130.949 241.714 126.15 243.459 123.474C243.459 123.474 243.459 122.767 242.15 121.787C240.841 120.806 214.226 127.629 202.446 127.022C190.666 126.416 174.086 127.022 174.086 127.022C176.09 147.107 186.303 145.783 191.538 146.22C196.774 145.783 195.465 138.366 194.156 135.748C192.847 133.131 202.446 133.567 203.319 142.293C203.319 150.146 198.956 158 174.086 154.946C153.834 149.461 157.53 136.737 144.518 122.767C142.672 132.238 125.656 138.366 116.93 141.857C110.822 144.3 100.35 142.729 99.4778 143.602C99.4778 146.22 118.239 146.656 123.038 146.656C130.019 150.583 95.551 153.637 86.8249 146.656C82.8981 143.515 85.7182 137.229 97.4985 134.003C107.373 131.299 114.951 127.459 114.951 127.022C113.876 127.022 104.479 132.258 85.7182 124.404C76.9009 121.139 68.328 119.584 64.5733 123.765L64.0686 125.011C64.7978 126.063 69.1231 126.814 70.6815 127.022C75.2508 127.631 88.1338 130.513 88.5701 129.64L89.4428 127.022C91.6243 127.459 94.6784 130.076 91.6243 132.238C81.0327 137.828 48.8077 133.762 56.0494 120.041C64.3392 105.643 79.1736 113.06 97.4985 110.006C97.4985 110.006 85.7182 106.429 76.5558 99.0986C67.191 92.5541 59.9762 76.4107 79.1736 67.2483C86.1545 64.1941 89.8789 73.3566 82.8981 79.0286C82.8981 78.156 84.6433 72.484 84.207 72.9203C79.9324 74.4637 77.3014 82.2571 80.9188 85.5732C86.1545 90.3725 101.019 98.7652 118.877 84.7005Z" fill="url(#paint2_linear)"/>
<path d="M173.955 126.527C171.9 118.936 169.432 116.995 164.924 113.933M109.417 146.609C114.629 147.039 120.415 147.152 122.903 147.156C123.233 147.356 123.383 147.517 123.439 147.619C123.465 147.667 123.465 147.692 123.465 147.703C123.464 147.715 123.46 147.744 123.426 147.796C123.349 147.914 123.163 148.08 122.803 148.27C122.453 148.455 121.985 148.639 121.406 148.816C119.08 149.527 115.203 150.057 110.8 150.247C106.406 150.437 101.53 150.287 97.2184 149.659C92.8819 149.026 89.2077 147.922 87.1373 146.266C86.2456 145.552 85.7662 144.688 85.6771 143.76C85.5875 142.825 85.8874 141.762 86.6787 140.651C88.2699 138.418 91.792 136.084 97.6305 134.485C102.593 133.126 106.978 131.482 110.126 130.121C111.699 129.441 112.968 128.83 113.849 128.357C114.287 128.122 114.638 127.917 114.885 127.752C115.006 127.67 115.115 127.589 115.2 127.512C115.211 127.502 115.223 127.491 115.235 127.479C118.111 126.915 119.838 124.32 121.381 121.674C121.589 121.316 121.795 120.956 122.001 120.596C122.592 119.561 123.181 118.531 123.831 117.566C124.703 116.272 125.658 115.142 126.813 114.345L126.245 113.522C124.943 114.42 123.906 115.665 123.002 117.007C122.329 118.005 121.713 119.083 121.117 120.127C120.915 120.48 120.716 120.829 120.517 121.171C118.908 123.93 117.354 126.117 114.901 126.524C114.772 126.531 114.635 126.565 114.519 126.597C114.374 126.637 114.199 126.693 114.002 126.756C113.966 126.768 113.928 126.78 113.89 126.792C113.508 126.916 113.026 127.072 112.434 127.236C111.135 127.597 109.307 127.999 106.933 128.16C102.187 128.481 95.2249 127.842 85.9113 123.943L85.9017 123.939L85.8919 123.936C81.4657 122.296 77.0672 121.073 73.2841 120.794C69.5167 120.516 66.2351 121.166 64.2013 123.431L64.1428 123.496L64.1099 123.578L63.6052 124.823L63.5038 125.074L63.6576 125.296C63.8022 125.504 64.0112 125.674 64.2297 125.813C64.453 125.955 64.7158 126.084 64.9982 126.202C65.5628 126.437 66.247 126.643 66.9417 126.818C68.3331 127.17 69.824 127.412 70.6155 127.518C72.1335 127.72 74.5739 128.175 77.181 128.661C78.473 128.902 79.8059 129.15 81.0877 129.379C83.0116 129.723 84.8186 130.023 86.1754 130.181C86.8511 130.261 87.433 130.307 87.868 130.303C88.0828 130.301 88.2865 130.287 88.4566 130.249C88.5416 130.23 88.6387 130.201 88.7307 130.151C88.8214 130.102 88.9418 130.015 89.0174 129.864L89.0332 129.832L89.0445 129.798L89.7691 127.624C90.6492 127.909 91.5923 128.53 92.0812 129.261C92.3574 129.674 92.4648 130.085 92.388 130.476C92.312 130.864 92.0375 131.326 91.3616 131.811C88.8084 133.149 84.9075 133.932 80.5574 134.12C76.2026 134.309 71.4546 133.9 67.266 132.895C63.0617 131.887 59.4915 130.295 57.4214 128.173C56.3943 127.119 55.7494 125.949 55.5591 124.661C55.3692 123.376 55.6244 121.921 56.4873 120.283C58.5135 116.767 60.9219 114.607 63.6641 113.279C66.4193 111.944 69.5461 111.432 73.034 111.269C75.4458 111.157 77.9969 111.213 80.7003 111.271C81.9195 111.298 83.1697 111.325 84.452 111.338C88.557 111.379 92.9497 111.27 97.5689 110.501C98.5556 110.384 100.153 109.933 102.05 109.345C102.981 109.058 103.996 108.733 105.062 108.392L105.167 108.358C106.273 108.004 107.433 107.633 108.617 107.266C113.378 105.788 118.43 104.398 121.729 104.398V103.398C118.25 103.398 113.048 104.844 108.32 106.311C107.132 106.68 105.967 107.052 104.862 107.406L104.759 107.439C103.691 107.78 102.681 108.104 101.755 108.39C99.9002 108.964 98.4324 109.375 97.5432 109.497C97.5343 109.494 97.5248 109.491 97.5147 109.488C97.4281 109.46 97.299 109.419 97.131 109.363C96.795 109.253 96.3034 109.086 95.6843 108.862C94.4458 108.416 92.6981 107.744 90.6654 106.844C86.5961 105.043 81.403 102.336 76.8681 98.7082L76.8555 98.6981L76.8422 98.6888C72.2461 95.4768 68.2087 89.9242 67.6516 84.1075C67.3743 81.212 67.957 78.2445 69.7687 75.4414C71.5824 72.6349 74.6475 69.9638 79.3816 67.7031C81.0217 66.9874 82.4159 67.0089 83.4871 67.4632C84.5634 67.9196 85.3754 68.8387 85.8004 70.0337C86.5471 72.133 86.0853 75.0884 83.6838 77.6233C83.8057 77.1267 83.952 76.5637 84.0979 76.0026C84.1321 75.871 84.1663 75.7396 84.2001 75.6091C84.3903 74.8755 84.5707 74.1685 84.6757 73.6713C84.7265 73.431 84.7671 73.2065 84.7753 73.0476C84.7775 73.0056 84.7783 72.9537 84.7729 72.8995C84.7689 72.8604 84.7564 72.7509 84.6875 72.6413C84.648 72.5786 84.5786 72.4977 84.4661 72.4451C84.3488 72.3903 84.231 72.3878 84.1367 72.4081C84.0699 72.4224 84.0139 72.448 83.9694 72.475C81.6607 73.3439 79.8814 75.8238 79.1231 78.4429C78.3577 81.0868 78.572 84.1001 80.581 85.9417C83.2545 88.3925 88.369 91.7485 95.0942 92.7059C101.803 93.6609 110.066 92.2214 119.04 85.2088C119.541 85.2608 120.027 85.5615 120.578 86.2378C121.195 86.9949 121.827 88.1466 122.588 89.7179L123.488 89.282C122.728 87.7117 122.052 86.4637 121.354 85.6065C120.71 84.8162 119.997 84.2966 119.129 84.2126C98.7112 58.4019 95.6366 37.5082 102.236 23.1179C108.856 8.68368 125.314 0.557159 144.417 0.557159C163.52 0.557159 180.03 8.6839 186.7 23.1192C193.35 37.5104 190.324 58.4054 169.904 84.2179C169.526 84.2673 169.11 84.4178 168.699 84.623C168.181 84.8816 167.623 85.251 167.084 85.7036C166.01 86.6046 164.963 87.8746 164.452 89.3347L165.396 89.6651C165.831 88.4223 166.746 87.2926 167.727 86.4696C168.215 86.0603 168.707 85.7366 169.145 85.5177C169.499 85.3411 169.791 85.2462 170.003 85.2137C178.988 92.2274 188.761 94.4235 196.338 93.4155C203.914 92.4076 209.491 88.1304 209.491 82.0827C209.491 80.9371 209.209 78.7129 208.59 76.1699C207.97 73.6215 207.002 70.7119 205.61 68.2053C204.223 65.7083 202.377 63.5454 199.97 62.5973C197.779 61.7342 195.22 61.9138 192.283 63.583C192.727 62.1174 193.562 61.0336 194.634 60.2563C195.975 59.2837 197.717 58.7711 199.591 58.6392C203.343 58.375 207.431 59.647 209.499 61.4854C215.751 69.2579 218.136 76.546 217.79 82.8188C217.444 89.0956 214.362 94.4231 209.551 98.2719C204.997 101.915 200.44 104.736 197.021 106.647C195.312 107.602 193.888 108.328 192.893 108.816C192.396 109.059 192.005 109.243 191.74 109.366C191.607 109.427 191.506 109.473 191.438 109.503L191.435 109.505C190.555 109.479 189.304 109.133 187.752 108.581C186.659 108.192 185.456 107.716 184.173 107.208C183.578 106.972 182.965 106.73 182.339 106.486C178.423 104.963 173.975 103.398 170.159 103.398V104.398C173.76 104.398 178.039 105.887 181.976 107.418C182.588 107.656 183.193 107.895 183.784 108.129C185.076 108.641 186.307 109.128 187.417 109.523C189 110.086 190.422 110.495 191.496 110.506C196.107 111.271 201.198 111.461 206.423 111.502C208.291 111.516 210.173 111.512 212.058 111.507C215.479 111.499 218.91 111.491 222.282 111.597C232.754 111.924 242.399 113.347 248.796 119.104C250.057 120.238 250.747 121.546 250.797 122.81C250.846 124.048 250.285 125.339 248.849 126.485C247.149 127.468 245.898 127.882 245.015 127.951C244.146 128.018 243.679 127.754 243.424 127.411C243.148 127.039 243.037 126.462 243.123 125.77C243.209 125.086 243.481 124.356 243.878 123.747L243.959 123.623V123.474H243.459C243.959 123.474 243.959 123.474 243.959 123.473V123.472L243.959 123.47L243.959 123.466L243.959 123.457C243.958 123.451 243.958 123.444 243.958 123.437C243.957 123.421 243.955 123.403 243.953 123.382C243.951 123.364 243.948 123.344 243.944 123.323C243.939 123.294 243.932 123.262 243.923 123.227C243.892 123.103 243.836 122.945 243.734 122.758C243.53 122.385 243.15 121.911 242.45 121.386C242.314 121.285 242.155 121.245 242.042 121.225C241.916 121.202 241.774 121.193 241.625 121.19C241.326 121.186 240.945 121.211 240.499 121.258C239.606 121.351 238.399 121.537 236.966 121.783C235.27 122.075 233.235 122.455 230.999 122.872C229.459 123.16 227.822 123.465 226.135 123.772C217.829 125.282 208.292 126.823 202.472 126.523C196.565 126.219 189.462 126.219 183.842 126.295C181.03 126.333 178.587 126.39 176.847 126.437C175.977 126.461 175.282 126.482 174.805 126.498C174.677 126.502 174.564 126.506 174.468 126.509C173.445 122.695 172.31 120.235 170.847 118.343C169.338 116.392 167.505 115.082 165.205 113.519L164.643 114.347C166.947 115.912 168.655 117.144 170.056 118.955C171.449 120.756 172.563 123.166 173.592 127.111C174.606 137.202 177.695 142.061 181.329 144.409C184.327 146.346 187.64 146.512 190.123 146.635C190.617 146.66 191.078 146.683 191.497 146.718L191.538 146.721L191.58 146.718C193.023 146.598 194.057 145.986 194.741 145.066C195.412 144.164 195.714 143.01 195.8 141.839C195.971 139.505 195.294 136.907 194.603 135.525C194.497 135.312 194.538 135.224 194.562 135.186C194.606 135.116 194.736 135.003 195.04 134.923C195.639 134.766 196.634 134.822 197.745 135.235C199.928 136.048 202.396 138.182 202.819 142.318C202.814 146.138 201.754 149.85 197.768 152.283C193.721 154.753 186.567 155.971 174.182 154.454C169.19 153.098 165.7 151.305 163.066 149.18C160.426 147.05 158.62 144.565 157.02 141.789C156.186 140.34 155.405 138.804 154.59 137.199C152.294 132.682 149.723 127.621 144.884 122.427L144.884 122.426L144.215 121.709L144.028 122.672C143.592 124.906 142.254 126.979 140.305 128.898C138.357 130.817 135.825 132.555 133.058 134.119C128.23 136.849 122.75 139.015 118.523 140.687C117.901 140.933 117.306 141.168 116.744 141.392C113.788 142.575 109.732 142.796 106.237 142.818C105.369 142.824 104.541 142.817 103.777 142.81L103.73 142.81C102.986 142.804 102.302 142.798 101.708 142.805C101.105 142.812 100.578 142.831 100.169 142.88C99.9643 142.904 99.7734 142.938 99.6096 142.986C99.4587 143.03 99.2686 143.104 99.1242 143.248L98.9778 143.395V143.602C98.9778 143.928 99.1274 144.2 99.3259 144.411C99.5199 144.616 99.7804 144.787 100.069 144.932C100.646 145.222 101.446 145.464 102.375 145.672C104.244 146.088 106.766 146.39 109.417 146.609Z" stroke="black" stroke-opacity="0.2"/>
<path d="M75.4808 88.6273C70.6815 82.9553 73.2268 75.6477 79.844 68.1209C72.9031 71.2337 71.0435 74.0449 68.5 79.4649C67.3085 85.6338 68.9073 88.6381 72.4268 93.863C80.4018 101.624 86.1407 104.78 97.7325 109.134L111.258 105.643C99.4066 103.973 85.9522 100.408 75.4808 88.6273Z" fill="white" fill-opacity="0.2"/>
<path d="M212.917 88.6273C217.717 82.9553 213.354 69.4298 208.118 61.14C212.481 63.7579 216.258 72.892 217.28 79.0286C218.153 84.2642 215.972 89.9362 212.917 94.2993C208.118 99.9713 198.083 106.08 190.229 109.57L178.885 105.207C190.737 103.536 202.446 100.408 212.917 88.6273Z" fill="white" fill-opacity="0.2"/>
<g filter="url(#filter0_d)">
<path d="M167.541 39.5579C165.796 31.9075 155.761 29.2897 150.089 34.7585M121.293 39.5579C123.038 31.9075 133.073 29.2897 138.745 34.7585" stroke="black" stroke-opacity="0.5" stroke-width="2"/>
</g>
<path d="M129.147 73.3566C134.819 86.0095 157.506 85.5732 161.433 73.3566" stroke="black" stroke-opacity="0.5" stroke-width="2"/>
<path d="M127.401 75.1018C128.642 73.2852 129.554 72.8527 131.328 72.484" stroke="black" stroke-opacity="0.5"/>
<path d="M163.615 75.1018C162.374 73.2852 161.462 72.8527 159.688 72.484" stroke="black" stroke-opacity="0.5"/>
<path d="M99.0414 41.9426C107.001 9.4051 136.564 -1.25172 174.086 9.21967C160.561 0.493475 144.417 -0.815447 128.274 3.11131C110.822 9.21965 99.914 17.0731 99.0414 41.9426Z" fill="white" fill-opacity="0.2"/>
<ellipse opacity="0.5" cx="123.475" cy="18.382" rx="5.67198" ry="5.23567" fill="url(#paint3_radial)"/>
<ellipse opacity="0.5" cx="137.436" cy="109.134" rx="4.79937" ry="4.36306" fill="url(#paint4_radial)"/>
<ellipse opacity="0.5" cx="175.395" cy="15.3279" rx="5.23567" ry="4.79937" fill="url(#paint5_radial)"/>
<circle opacity="0.5" cx="133.073" cy="11.8374" r="3.05414" fill="url(#paint6_radial)"/>
<circle opacity="0.5" cx="160.561" cy="15.7642" r="2.61784" fill="url(#paint7_radial)"/>
<circle opacity="0.5" cx="154.452" cy="8.7833" r="2.61784" fill="url(#paint8_radial)"/>
<circle opacity="0.5" cx="185.866" cy="48.0508" r="2.61784" fill="url(#paint9_radial)"/>
<circle opacity="0.5" cx="187.612" cy="34.9616" r="2.61784" fill="url(#paint10_radial)"/>
<circle opacity="0.5" cx="177.14" cy="29.726" r="2.61784" fill="url(#paint11_radial)"/>
<circle opacity="0.5" cx="132.201" cy="20.5635" r="3.05414" fill="url(#paint12_radial)"/>
<circle opacity="0.5" cx="113.003" cy="25.7992" r="3.92676" fill="url(#paint13_radial)"/>
<circle opacity="0.5" cx="108.204" cy="32.3438" r="1.74522" fill="url(#paint14_radial)"/>
<circle opacity="0.5" cx="112.567" cy="36.7069" r="1.74522" fill="url(#paint15_radial)"/>
<circle opacity="0.5" cx="106.022" cy="38.0158" r="1.30892" fill="url(#paint16_radial)"/>
<circle opacity="0.5" cx="119.111" cy="24.9266" r="1.30892" fill="url(#paint17_radial)"/>
<circle opacity="0.5" cx="140.49" cy="14.8916" r="1.74522" fill="url(#paint18_radial)"/>
<circle opacity="0.5" cx="143.108" cy="9.6559" r="1.74522" fill="url(#paint19_radial)"/>
<circle opacity="0.5" cx="148.344" cy="12.2737" r="1.74522" fill="url(#paint20_radial)"/>
<circle opacity="0.5" cx="148.344" cy="7.03808" r="0.872612" fill="url(#paint21_radial)"/>
<path d="M143.108 50.2324C143.108 55.4201 140.876 62.6222 136.564 64.1942C131.764 64.1942 131.764 61.5763 126.217 62.1924C123.746 60.0327 121.293 53.933 121.293 50.2324C121.293 43.7263 126.177 38.4521 132.201 38.4521C138.225 38.4521 143.108 43.7263 143.108 50.2324Z" fill="url(#paint22_radial)"/>
<path d="M121.793 50.2324C121.793 43.9655 126.488 38.9521 132.201 38.9521C137.913 38.9521 142.608 43.9655 142.608 50.2324C142.608 52.7642 142.062 55.7962 140.991 58.3776C139.928 60.9421 138.394 62.954 136.474 63.6939C134.459 63.6796 133.368 63.1836 132.227 62.6649C132.11 62.6119 131.993 62.5587 131.875 62.5057C131.215 62.211 130.503 61.9231 129.59 61.7537C128.727 61.5934 127.704 61.5425 126.388 61.6718C125.289 60.6309 124.161 58.732 123.291 56.6012C122.382 54.3759 121.793 51.9934 121.793 50.2324Z" stroke="black" stroke-opacity="0.05"/>
<path d="M145.726 50.2324C145.726 55.4201 147.958 62.6222 152.271 64.1942C156.197 64.1942 157.943 62.1924 162.618 62.1924C165.089 60.0327 167.541 53.933 167.541 50.2324C167.541 43.7263 162.658 38.4521 156.634 38.4521C150.61 38.4521 145.726 43.7263 145.726 50.2324Z" fill="url(#paint23_radial)"/>
<path d="M167.041 50.2324C167.041 43.9655 162.346 38.9521 156.634 38.9521C150.921 38.9521 146.226 43.9655 146.226 50.2324C146.226 52.7642 146.773 55.7962 147.843 58.3776C148.907 60.942 150.44 62.9539 152.36 63.6938C154.11 63.6796 155.402 63.2511 156.822 62.7797C156.883 62.7594 156.945 62.7391 157.006 62.7186C158.491 62.2272 160.109 61.7205 162.424 61.6935C163.53 60.6574 164.667 58.7469 165.543 56.6012C166.452 54.3759 167.041 51.9934 167.041 50.2324Z" stroke="black" stroke-opacity="0.05"/>
<ellipse cx="157.07" cy="51.105" rx="6.9809" ry="7.4172" fill="url(#paint24_linear)"/>
<ellipse cx="157.07" cy="51.105" rx="5.23567" ry="5.67198" fill="url(#paint25_radial)"/>
<ellipse cx="153.58" cy="48.4872" rx="2.61784" ry="3.05414" fill="url(#paint26_radial)"/>
<ellipse cx="132.637" cy="51.105" rx="6.9809" ry="7.4172" fill="url(#paint27_linear)"/>
<ellipse cx="132.637" cy="51.105" rx="5.23567" ry="5.67198" fill="url(#paint28_radial)"/>
<ellipse cx="129.147" cy="48.4872" rx="2.61784" ry="3.05414" fill="url(#paint29_radial)"/>
<path d="M132.201 127.895C140.927 120.478 144.417 121.787 144.417 121.787C142.236 129.204 135.691 132.694 128.274 136.185C120.857 139.239 118.168 141.098 113.44 141.857C108.158 142.704 101.659 142.293 99.0415 142.729C99.0415 142.729 98.6052 139.675 102.968 138.803C107.331 137.93 108.858 137.494 113.439 136.185L113.44 136.185C119.548 134.439 126.965 130.949 132.201 127.895Z" fill="white" fill-opacity="0.2"/>
<path d="M167.542 144.038C152.271 119.169 144.854 121.787 144.854 121.787C150.081 125.707 150.962 132.176 160.124 145.347C165.36 155.382 189.793 157.564 198.956 151.019C202.446 147.092 202.01 144.911 202.01 144.911C202.01 144.911 200.701 150.146 193.284 151.892C181.94 153.637 171.032 147.529 167.542 144.038Z" fill="white" fill-opacity="0.2"/>
<path d="M80.7166 121.787C98.7308 128.484 106.314 129.224 114.748 126.15C118.675 126.586 120.618 120.116 122.602 117.86C116.416 118.796 115.621 122.223 101.223 120.041C86.825 117.86 68.9364 112.624 63.2644 118.296C61.5193 120.041 60.6465 123.096 61.5191 124.841L63.2644 125.713C61.9554 118.732 80.7166 121.787 80.7166 121.787Z" fill="white" fill-opacity="0.2"/>
<path d="M212.045 125.713C205.064 126.081 190.229 125.713 174.086 125.277C173.214 120.041 169.723 116.987 167.978 115.678C174.163 116.615 181.94 119.169 190.229 120.041C198.519 120.914 207.245 123.095 224.698 120.041C237.709 117.764 244.331 115.678 244.331 123.095C240.405 115.678 232.987 123.968 212.045 125.713Z" fill="white" fill-opacity="0.2"/>
<ellipse opacity="0.5" cx="132.201" cy="123.968" rx="3.92676" ry="3.49045" fill="url(#paint30_radial)"/>
<ellipse opacity="0.5" cx="151.834" cy="115.678" rx="2.61784" ry="2.18153" fill="url(#paint31_radial)"/>
<ellipse opacity="0.5" cx="167.541" cy="123.532" rx="2.61784" ry="2.18153" fill="url(#paint32_radial)"/>
<ellipse opacity="0.5" cx="178.013" cy="108.697" rx="2.61784" ry="2.18153" fill="url(#paint33_radial)"/>
<ellipse opacity="0.5" cx="185.866" cy="114.806" rx="1.74522" ry="1.30892" fill="url(#paint34_radial)"/>
<circle opacity="0.5" cx="204.191" cy="113.497" r="1.74522" fill="url(#paint35_radial)"/>
<circle opacity="0.5" cx="222.08" cy="115.678" r="1.30892" fill="url(#paint36_radial)"/>
<circle opacity="0.5" cx="227.315" cy="117.424" r="1.30892" fill="url(#paint37_radial)"/>
<circle opacity="0.5" cx="230.37" cy="124.841" r="0.872612" fill="url(#paint38_radial)"/>
<circle opacity="0.5" cx="244.331" cy="117.86" r="0.872612" fill="url(#paint39_radial)"/>
<circle opacity="0.5" cx="249.567" cy="122.223" r="0.872612" fill="url(#paint40_radial)"/>
<circle opacity="0.5" cx="241.714" cy="125.713" r="0.872612" fill="url(#paint41_radial)"/>
<ellipse opacity="0.5" cx="215.535" cy="117.424" rx="1.74522" ry="1.30892" fill="url(#paint42_radial)"/>
<ellipse opacity="0.5" cx="167.541" cy="137.494" rx="2.61784" ry="2.18153" fill="url(#paint43_radial)"/>
<ellipse opacity="0.5" cx="177.14" cy="145.347" rx="1.74522" ry="1.30892" fill="url(#paint44_radial)"/>
<ellipse opacity="0.5" cx="182.376" cy="149.71" rx="1.74522" ry="1.30892" fill="url(#paint45_radial)"/>
<ellipse opacity="0.5" cx="193.72" cy="147.092" rx="1.74522" ry="1.30892" fill="url(#paint46_radial)"/>
<ellipse opacity="0.5" cx="198.956" cy="139.239" rx="1.74522" ry="1.30892" fill="url(#paint47_radial)"/>
<circle opacity="0.5" cx="118.675" cy="126.586" r="2.61784" fill="url(#paint48_radial)"/>
<ellipse opacity="0.5" cx="110.385" cy="110.879" rx="3.92676" ry="2.61784" fill="url(#paint49_radial)"/>
<ellipse opacity="0.5" cx="111.694" cy="96.0445" rx="2.61784" ry="3.49045" fill="url(#paint50_radial)"/>
<ellipse opacity="0.5" cx="97.7821" cy="98.1162" rx="2.18153" ry="3.05414" transform="rotate(-73.8667 97.7821 98.1162)" fill="url(#paint51_radial)"/>
<ellipse opacity="0.5" cx="79.4327" cy="89.1279" rx="1.34073" ry="1.87702" transform="rotate(-73.8667 79.4327 89.1279)" fill="url(#paint52_radial)"/>
<ellipse opacity="0.5" cx="77.2202" cy="78.6566" rx="1.34073" ry="1.87702" transform="rotate(-73.8667 77.2202 78.6566)" fill="url(#paint53_radial)"/>
<ellipse opacity="0.5" cx="182.806" cy="95.2362" rx="1.34073" ry="1.87702" transform="rotate(-73.8667 182.806 95.2362)" fill="url(#paint54_radial)"/>
<ellipse opacity="0.5" cx="210.73" cy="76.9113" rx="1.34073" ry="1.87702" transform="rotate(-73.8667 210.73 76.9113)" fill="url(#paint55_radial)"/>
<ellipse opacity="0.5" cx="205.33" cy="91.4408" rx="1.93171" ry="2.70439" transform="rotate(-73.8667 205.33 91.4408)" fill="url(#paint56_radial)"/>
<ellipse opacity="0.5" cx="193.364" cy="98.6516" rx="1.93171" ry="2.70439" transform="rotate(-73.8667 193.364 98.6516)" fill="url(#paint57_radial)"/>
<ellipse opacity="0.5" cx="67.4219" cy="114.006" rx="2.16609" ry="1.85664" transform="rotate(37.4895 67.4219 114.006)" fill="url(#paint58_radial)"/>
<ellipse opacity="0.5" cx="81.0642" cy="112.155" rx="0.990538" ry="0.849032" transform="rotate(37.4895 81.0642 112.155)" fill="url(#paint59_radial)"/>
<ellipse opacity="0.5" cx="96.0198" cy="115.861" rx="2.93847" ry="2.51869" transform="rotate(16.1474 96.0198 115.861)" fill="url(#paint60_radial)"/>
<circle opacity="0.5" cx="119.548" cy="139.675" r="1.74522" fill="url(#paint61_radial)"/>
<circle opacity="0.5" cx="103.841" cy="147.529" r="1.74522" fill="url(#paint62_radial)"/>
<circle opacity="0.5" cx="95.551" cy="145.347" r="1.30892" fill="url(#paint63_radial)"/>
<circle opacity="0.5" cx="107.768" cy="134.876" r="1.30892" fill="url(#paint64_radial)"/>
<circle opacity="0.5" cx="98.6052" cy="140.548" r="0.872612" fill="url(#paint65_radial)"/>
<ellipse opacity="0.5" cx="88.5702" cy="140.548" rx="1.30892" ry="1.74522" fill="url(#paint66_radial)"/>
<path d="M173.121 124.741C172.085 125.226 171.637 126.46 172.123 127.497L179.758 142.729C180.243 143.766 183.685 145.347 186.303 145.783C188.92 146.22 192.847 146.22 192.847 146.22C194.592 145.783 195.95 142.894 195.465 141.857L187.143 120.466C186.658 119.429 185.424 118.982 184.387 119.467L173.121 124.741Z" fill="#C8CCBE"/>
<path d="M173.121 124.741C172.085 125.226 171.637 126.46 172.123 127.497L176.517 136.885L191.537 129.854L187.143 120.466C186.658 119.429 185.423 118.982 184.387 119.468L173.121 124.741Z" fill="#9FDCC2"/>
<path d="M176.817 125.3L177.621 124.923L181.14 127.2C181.893 126.848 182.738 126.452 182.883 126.384C183.419 126.133 184.081 126.15 184.207 126.418C184.333 126.687 183.922 127.206 183.385 127.457C183.24 127.525 182.395 127.92 181.642 128.273L181.137 132.433L180.332 132.81L179.764 129.152C179.236 129.399 178.696 129.652 178.343 129.817L177.892 131.091L177.356 131.342L177.166 129.714L176.038 128.526L176.574 128.275L177.84 128.745C178.194 128.579 178.734 128.327 179.262 128.079L176.817 125.3Z" fill="#F5F9EC"/>
<path d="M191.537 129.854L176.517 136.885L176.028 135.839L182.811 126.12L189.253 124.975L191.537 129.854Z" fill="#6CB897"/>
<path d="M182.883 126.384C183.42 126.133 184.082 126.15 184.207 126.418C184.333 126.687 183.922 127.206 183.385 127.457C183.24 127.525 182.395 127.921 181.642 128.273L181.137 132.434L180.332 132.81L179.934 130.243L182.503 126.562C182.692 126.474 182.832 126.408 182.883 126.384Z" fill="#E4E8DB"/>
<path d="M183.448 119.907L194.85 144.264C195.465 144.038 196.258 139.939 195.313 137.919L187.143 120.466C186.658 119.429 185.423 118.982 184.386 119.467L183.448 119.907Z" fill="#00974E"/>
<path d="M192.298 145.72L189.222 139.149L190.161 138.71L193.237 145.281L192.298 145.72Z" fill="#626262"/>
<path d="M188.343 137.273L187.464 135.396L188.403 134.956L189.282 136.834L188.343 137.273Z" fill="#626262"/>
<path d="M185.524 138.589L184.645 136.711L185.584 136.272L186.463 138.149L185.524 138.589Z" fill="#626262"/>
<path d="M182.711 139.908L181.832 138.031L182.771 137.591L183.649 139.469L182.711 139.908Z" fill="#626262"/>
<path d="M188.921 146.217L186.408 140.468L187.347 140.029L190.296 146.217L188.921 146.217Z" fill="#626262"/>
<path d="M185.43 145.783L183.588 141.788L184.527 141.349L186.664 145.783L185.43 145.783Z" fill="#626262"/>
<path d="M198.519 92.5541C205.025 92.5541 210.3 87.2799 210.3 80.7738C210.3 74.2677 205.025 68.9935 198.519 68.9935C192.013 68.9935 186.739 74.2677 186.739 80.7738C186.739 87.2799 192.013 92.5541 198.519 92.5541Z" fill="url(#paint67_linear)"/>
<path d="M198.519 90.2326C203.743 90.2326 207.978 85.9977 207.978 80.7738C207.978 75.5499 203.743 71.3151 198.519 71.3151C193.295 71.3151 189.061 75.5499 189.061 80.7738C189.061 85.9977 193.295 90.2326 198.519 90.2326Z" fill="#F1F1F1"/>
<path d="M198.519 71.3151C193.295 71.3151 189.061 75.5499 189.061 80.7738C189.061 82.1747 189.365 83.5045 189.912 84.7006C189.061 78.156 195.029 70.3025 204.628 73.5516C202.98 72.1564 200.848 71.3151 198.519 71.3151Z" fill="#1C1C1C" fill-opacity="0.11"/>
<path d="M200.945 89.941C205.991 88.589 208.985 83.4024 207.633 78.3565C207.271 77.0033 206.632 75.7977 205.795 74.7838C208.311 80.8851 204.579 90.0157 194.466 89.3617C196.419 90.2828 198.696 90.5437 200.945 89.941Z" fill="white"/>
<path d="M192.308 86.9855L199.68 81.9346L197.359 79.613L192.308 86.9855Z" fill="#FBD303"/>
<path d="M197.359 79.613L199.68 81.9346L204.731 74.5621L197.359 79.613Z" fill="#F0582F"/>
<path d="M198.519 82.1699C199.29 82.1699 199.915 81.5448 199.915 80.7738C199.915 80.0028 199.29 79.3778 198.519 79.3778C197.748 79.3778 197.123 80.0028 197.123 80.7738C197.123 81.5448 197.748 82.1699 198.519 82.1699Z" fill="#28336E"/>
<path d="M198.896 71.7386H198.143V73.3386H198.896V71.7386Z" fill="#BDBDBE"/>
<path d="M198.896 88.209H198.143V89.809H198.896V88.209Z" fill="#BDBDBE"/>
<path d="M207.554 80.3973H205.955V81.1503H207.554V80.3973Z" fill="#BDBDBE"/>
<path d="M191.084 80.3973H189.484V81.1503H191.084V80.3973Z" fill="#BDBDBE"/>
<path d="M197.21 63.3215C197.077 61.3423 197.831 58.7597 198.956 57.6496C200.062 57.2282 200.812 57.5564 202.446 57.6496C200.88 59.2022 199.943 61.5188 200.264 63.7579C199.869 63.3815 199.36 63.2446 197.21 63.3215Z" fill="#323E7A"/>
<path fill-rule="evenodd" clip-rule="evenodd" d="M196.774 69.4299L202.01 69.4299C201.71 67.6049 201.235 66.9332 199.828 66.3757C197.747 66.3724 197.187 67.5079 196.774 69.4299ZM200.701 68.9936L198.083 68.9935C198.289 67.8953 198.569 67.2464 199.61 67.2483C200.313 67.5669 200.551 67.9507 200.701 68.9936Z" fill="#3F4C8A"/>
<path d="M196.338 63.3215C196.205 61.3423 196.958 58.7597 198.083 57.6496C199.189 57.2282 199.939 57.5564 201.573 57.6496C200.007 59.2022 199.07 61.5188 199.392 63.7579C198.996 63.3815 198.488 63.2446 196.338 63.3215Z" fill="#323E7A"/>
<ellipse opacity="0.5" cx="206.367" cy="65.5674" rx="1.34073" ry="1.87702" transform="rotate(-73.8667 206.367 65.5674)" fill="url(#paint68_radial)"/>
<path d="M77.9323 84.9935C77.5724 86.7012 80.9878 87.4209 81.3477 85.7132L84.2071 72.9203C82.7854 73.1406 81.8572 73.8505 79.7205 77.2834L77.9323 84.9935Z" fill="#E8E8E8"/>
<path d="M81.1037 85.6587L81.1037 85.6587L81.1031 85.6617C81.0331 85.9937 80.8197 86.2089 80.5188 86.3292C80.2096 86.4528 79.8123 86.4718 79.4216 86.3895C79.031 86.3072 78.6751 86.1294 78.4421 85.8916C78.2159 85.6607 78.1074 85.3784 78.1764 85.0474L79.9547 77.3803C81.0103 75.6869 81.7562 74.6854 82.4028 74.0796C82.9193 73.5957 83.3721 73.3646 83.8796 73.2395L81.1037 85.6587Z" stroke="black" stroke-opacity="0.15" stroke-width="0.5"/>
<path fill-rule="evenodd" clip-rule="evenodd" d="M200.701 65.9394C200.701 67.1442 199.919 68.1209 198.956 68.1209C197.992 68.1209 197.21 67.1442 197.21 65.9394C197.21 64.7346 197.992 63.7579 198.956 63.7579C199.273 63.7579 199.572 63.8641 199.828 64.0497C199.784 64.3565 199.676 64.5055 199.231 64.6972C199.145 64.6539 199.052 64.6305 198.956 64.6305C198.474 64.6305 198.083 65.2165 198.083 65.9394C198.083 66.6623 198.474 67.2483 198.956 67.2483C199.438 67.2483 199.828 66.6623 199.828 65.9394C199.828 65.7052 199.787 65.4853 199.715 65.2951C199.929 65.2115 200.047 65.1669 200.441 64.7926C200.606 65.1258 200.701 65.5187 200.701 65.9394Z" fill="#595959"/>
<path d="M198.083 68.9935L200.701 68.9935C200.551 67.9507 200.313 67.5669 199.61 67.2483C199.321 67.2478 199.142 67.153 198.956 67.2483L198.336 66.6669C198.723 66.4749 199.208 66.3747 199.828 66.3757C201.573 66.812 202.01 68.5572 202.01 69.8662L196.774 69.4299C196.965 68.5407 197.188 67.8198 197.578 67.3021C197.851 67.6861 198.029 67.8334 198.369 67.9875C198.242 68.2576 198.158 68.5962 198.083 68.9935Z" fill="#414D8C"/>
<path d="M88.5701 129.64C88.1338 130.513 81.5892 129.204 77.2262 128.331C72.8631 127.459 68.0638 126.586 68.0638 126.586C67.3492 126.341 63.899 125.672 64.1436 124.957L73.0016 99.0834C73.2462 98.3689 74.0236 97.988 74.7382 98.2326L94.1436 104.876C95.5726 105.365 96.3344 106.92 95.8452 108.349L88.5701 129.64Z" fill="#125D9D"/>
<path d="M83.7591 105.657C79.4722 104.189 74.8071 106.475 73.3395 110.762C71.8719 115.049 74.1574 119.714 78.4443 121.181C82.7312 122.649 87.3962 120.363 88.8639 116.076C90.3315 111.79 88.0461 107.125 83.7591 105.657ZM87.8428 112.475L85.0453 111.517C85.2367 110.085 85.1898 108.858 85.0493 107.876C86.5841 108.972 87.5816 110.638 87.8428 112.475ZM83.0422 114.083C82.8445 114.661 82.6196 115.177 82.3859 115.665L78.7104 114.407C78.8251 113.878 78.9634 113.332 79.161 112.755C79.3588 112.177 79.583 111.661 79.8164 111.172L83.4944 112.432C83.379 112.961 83.24 113.506 83.0422 114.083ZM80.4751 109.953C81.3892 108.454 82.3849 107.48 83.1215 106.905C83.1859 106.925 83.2517 106.929 83.3162 106.951C83.3813 106.973 83.4355 107.011 83.4997 107.035C83.7302 107.946 83.9171 109.326 83.7215 111.064L80.4751 109.953ZM81.3793 106.62C80.6685 107.309 79.879 108.25 79.152 109.5L76.3536 108.542C77.6862 107.25 79.4951 106.545 81.3793 106.62ZM75.4164 109.666L78.5127 110.726C78.2833 111.22 78.0633 111.74 77.8674 112.312C77.6715 112.884 77.5279 113.43 77.4073 113.961L74.3091 112.9C74.3519 112.334 74.4408 111.766 74.6331 111.205C74.8254 110.643 75.1033 110.14 75.4164 109.666ZM74.3606 114.363L77.1622 115.322C76.9726 116.759 77.0169 117.995 77.1524 118.961C75.6187 117.865 74.6217 116.2 74.3606 114.363ZM78.7054 119.804C78.4859 118.932 78.2863 117.545 78.4837 115.775L81.7268 116.885C80.799 118.404 79.7916 119.378 79.0817 119.933C79.0173 119.913 78.9518 119.91 78.8873 119.888C78.8229 119.866 78.7689 119.828 78.7054 119.804ZM80.8269 120.219C81.5268 119.538 82.3188 118.589 83.0486 117.338L85.8498 118.297C84.5178 119.588 82.7098 120.293 80.8269 120.219ZM86.787 117.172L83.6891 116.112C83.9193 115.618 84.14 115.099 84.3359 114.526C84.5317 113.954 84.6769 113.409 84.7983 112.878L87.8941 113.938C87.8513 114.504 87.7624 115.072 87.5702 115.634C87.3779 116.195 87.1001 116.699 86.787 117.172Z" fill="#E7BE29"/>
<path d="M69.7591 123.991L70.3931 122.139L71.0918 122.378C71.2148 122.42 71.3066 122.458 71.3674 122.492C71.4532 122.538 71.5195 122.593 71.5665 122.657C71.6134 122.72 71.6424 122.797 71.6537 122.886C71.6649 122.976 71.6548 123.067 71.6234 123.158C71.5695 123.316 71.4737 123.432 71.3362 123.507C71.1986 123.582 70.9989 123.574 70.737 123.484L70.2619 123.322L70.0041 124.075L69.7591 123.991ZM70.3368 123.103L70.8156 123.267C70.9739 123.321 71.0964 123.33 71.1832 123.294C71.2699 123.258 71.3316 123.186 71.3682 123.079C71.3947 123.002 71.3978 122.929 71.3775 122.86C71.3573 122.792 71.3181 122.738 71.2602 122.698C71.2226 122.673 71.1483 122.641 71.0371 122.603L70.5634 122.441L70.3368 123.103V123.103Z" fill="white"/>
<path d="M71.0894 124.446L72.4347 122.838L72.6988 122.928L72.8228 125.04L72.5436 124.944L72.5196 124.309L71.7451 124.044L71.3497 124.535L71.0894 124.446ZM71.8842 123.868L72.5121 124.083L72.4944 123.504C72.4888 123.328 72.4888 123.185 72.4945 123.075C72.4302 123.186 72.3566 123.293 72.2736 123.395L71.8842 123.868Z" fill="white"/>
<path d="M73.1389 124.483L73.377 124.542C73.3562 124.638 73.3557 124.723 73.3754 124.796C73.3951 124.869 73.4407 124.938 73.5124 125.004C73.5841 125.069 73.6725 125.12 73.7779 125.156C73.8714 125.188 73.9587 125.203 74.0398 125.199C74.1209 125.196 74.1872 125.176 74.2388 125.14C74.2904 125.103 74.3259 125.056 74.3455 124.999C74.3654 124.941 74.366 124.884 74.3471 124.829C74.3282 124.775 74.2851 124.719 74.2177 124.663C74.1746 124.627 74.075 124.559 73.9189 124.46C73.7628 124.361 73.6568 124.281 73.601 124.222C73.5283 124.145 73.4821 124.065 73.4623 123.982C73.4424 123.898 73.447 123.814 73.4762 123.729C73.5082 123.635 73.5646 123.557 73.6455 123.494C73.7263 123.431 73.8249 123.396 73.9413 123.388C74.0576 123.381 74.1781 123.399 74.3027 123.442C74.44 123.489 74.5535 123.552 74.6433 123.632C74.733 123.712 74.7913 123.805 74.8184 123.91C74.8454 124.015 74.8424 124.123 74.8094 124.233L74.5684 124.17C74.5958 124.049 74.5833 123.946 74.531 123.861C74.4786 123.777 74.3812 123.71 74.2389 123.661C74.0907 123.61 73.9734 123.601 73.8869 123.632C73.8005 123.663 73.7442 123.717 73.7179 123.793C73.6952 123.86 73.7004 123.923 73.7338 123.982C73.7662 124.041 73.8743 124.127 74.0581 124.241C74.2418 124.354 74.3649 124.44 74.4276 124.499C74.5183 124.586 74.5763 124.676 74.6017 124.77C74.6269 124.864 74.6226 124.96 74.5885 125.06C74.5548 125.158 74.4948 125.241 74.4085 125.309C74.3222 125.377 74.2179 125.417 74.0957 125.429C73.9733 125.442 73.8461 125.425 73.7139 125.38C73.5463 125.322 73.4142 125.25 73.3176 125.162C73.2211 125.075 73.1574 124.971 73.1265 124.851C73.0958 124.731 73.0999 124.608 73.1389 124.483Z" fill="white"/>
<path d="M74.8648 125.074L75.1028 125.133C75.082 125.229 75.0815 125.314 75.1012 125.387C75.1209 125.46 75.1666 125.529 75.2383 125.595C75.31 125.66 75.3984 125.711 75.5037 125.747C75.5972 125.779 75.6845 125.793 75.7657 125.79C75.8468 125.787 75.9131 125.767 75.9647 125.73C76.0162 125.694 76.0517 125.647 76.0714 125.59C76.0913 125.532 76.0918 125.475 76.0729 125.42C76.0541 125.365 76.011 125.31 75.9436 125.254C75.9004 125.218 75.8009 125.15 75.6447 125.051C75.4886 124.952 75.3826 124.872 75.3268 124.813C75.2542 124.736 75.2079 124.656 75.1881 124.572C75.1682 124.489 75.1728 124.405 75.202 124.32C75.234 124.226 75.2904 124.148 75.3713 124.085C75.4522 124.022 75.5507 123.986 75.6671 123.979C75.7834 123.972 75.9039 123.99 76.0286 124.032C76.1659 124.079 76.2794 124.143 76.3691 124.223C76.4588 124.303 76.5171 124.396 76.5442 124.501C76.5712 124.606 76.5682 124.714 76.5352 124.824L76.2942 124.761C76.3217 124.64 76.3092 124.537 76.2568 124.452C76.2044 124.367 76.107 124.301 75.9647 124.252C75.8165 124.201 75.6992 124.191 75.6127 124.222C75.5263 124.254 75.47 124.307 75.4438 124.384C75.421 124.451 75.4263 124.514 75.4596 124.573C75.492 124.632 75.6001 124.718 75.7839 124.832C75.9676 124.945 76.0908 125.031 76.1534 125.09C76.2442 125.177 76.3022 125.267 76.3275 125.361C76.3527 125.454 76.3484 125.551 76.3144 125.65C76.2806 125.749 76.2206 125.832 76.1344 125.9C76.0481 125.968 75.9438 126.008 75.8215 126.02C75.6992 126.032 75.5719 126.016 75.4397 125.971C75.2721 125.913 75.1401 125.841 75.0435 125.753C74.9469 125.665 74.8832 125.562 74.8524 125.441C74.8216 125.321 74.8257 125.199 74.8648 125.074Z" fill="white"/>
<path d="M76.4702 126.288L77.1042 124.436L77.8029 124.675C77.9259 124.717 78.0178 124.755 78.0786 124.789C78.1643 124.836 78.2306 124.891 78.2776 124.954C78.3245 125.018 78.3536 125.094 78.3649 125.184C78.376 125.273 78.366 125.364 78.3345 125.456C78.2806 125.613 78.1848 125.729 78.0474 125.804C77.9097 125.879 77.7101 125.871 77.4481 125.782L76.9731 125.619L76.7153 126.372L76.4702 126.288ZM77.0479 125.401L77.5267 125.565C77.685 125.619 77.8076 125.628 77.8943 125.592C77.981 125.555 78.0427 125.484 78.0793 125.377C78.1058 125.299 78.1089 125.226 78.0886 125.158C78.0684 125.089 78.0292 125.035 77.9713 124.995C77.9337 124.97 77.8594 124.939 77.7483 124.901L77.2745 124.739L77.0479 125.401Z" fill="white"/>
<path d="M78.4302 125.951C78.5354 125.644 78.7004 125.432 78.9251 125.314C79.1497 125.197 79.3925 125.183 79.6536 125.272C79.8246 125.331 79.9647 125.424 80.0741 125.553C80.1834 125.682 80.249 125.831 80.271 126.002C80.293 126.173 80.2723 126.351 80.2089 126.536C80.1446 126.724 80.0491 126.879 79.9226 127.001C79.796 127.124 79.6502 127.199 79.4852 127.228C79.3201 127.257 79.1572 127.243 78.9963 127.188C78.822 127.129 78.6806 127.033 78.5721 126.902C78.4637 126.771 78.399 126.62 78.3782 126.45C78.3571 126.28 78.3745 126.114 78.4302 125.951ZM78.6816 126.042C78.6052 126.265 78.6049 126.461 78.6811 126.631C78.7571 126.8 78.8857 126.916 79.0668 126.978C79.2512 127.041 79.4253 127.028 79.5888 126.94C79.7524 126.851 79.875 126.687 79.9566 126.449C80.0082 126.298 80.0278 126.158 80.0154 126.028C80.0029 125.898 79.9582 125.785 79.8813 125.69C79.8043 125.594 79.7047 125.525 79.5827 125.484C79.4091 125.424 79.2395 125.433 79.0736 125.509C78.9076 125.585 78.777 125.763 78.6816 126.042Z" fill="white"/>
<path d="M80.2122 127.569L80.8463 125.717L81.6674 125.998C81.8325 126.055 81.9523 126.115 82.0268 126.177C82.1014 126.24 82.1498 126.322 82.1724 126.424C82.1949 126.526 82.1888 126.628 82.1539 126.73C82.1089 126.861 82.0284 126.957 81.9125 127.018C81.7966 127.079 81.6456 127.091 81.4596 127.055C81.5137 127.108 81.5524 127.156 81.5758 127.198C81.6248 127.288 81.6646 127.393 81.6949 127.514L81.8444 128.128L81.5361 128.023L81.423 127.553C81.3894 127.418 81.3596 127.312 81.3334 127.238C81.3073 127.163 81.2799 127.107 81.2514 127.071C81.2228 127.035 81.1911 127.006 81.1564 126.984C81.1306 126.968 81.0862 126.95 81.0229 126.928L80.7386 126.831L80.4571 127.653L80.2122 127.569L80.2122 127.569ZM80.8115 126.619L81.3384 126.799C81.4503 126.837 81.5419 126.856 81.613 126.854C81.6841 126.853 81.7448 126.832 81.7951 126.792C81.8454 126.753 81.8807 126.703 81.9012 126.643C81.9312 126.555 81.924 126.472 81.8798 126.394C81.8354 126.316 81.7447 126.253 81.6074 126.206L81.0212 126.006L80.8114 126.619L80.8115 126.619Z" fill="white"/>
<path d="M82.5015 128.353L83.0607 126.72L82.4505 126.511L82.5253 126.292L83.9934 126.795L83.9185 127.013L83.3058 126.803L82.7466 128.437L82.5015 128.353Z" fill="white"/>
<path d="M261.812 28.3717V17.4815H224.618V28.3717H236.765V73.3566H249.665V28.3717H261.812Z" fill="#323E7A"/>
<path d="M268.594 17.4815V73.3566H281.495V51.3249L296.574 73.3566H312.323L295.15 50.4872C298.249 49.7332 301.014 48.0578 302.94 46.2149C306.542 42.6965 307.296 38.3404 307.296 34.822C307.296 28.623 304.783 24.602 302.438 22.3402C299.757 19.8271 295.317 17.4815 288.197 17.4815H268.594ZM281.495 27.534H284.511C286.186 27.534 289.537 27.7015 291.631 29.2932C292.72 30.1309 294.228 31.8063 294.228 34.9896C294.228 37.754 293.055 39.5132 292.134 40.4347C289.956 42.6127 286.773 42.864 284.427 42.864H281.495V27.534Z" fill="#323E7A"/>
<path d="M357.405 73.3566H370.808L348.777 17.4815H336.965L314.431 73.3566H327.834L332.106 62.8015H353.217L357.405 73.3566ZM335.876 52.9165L342.829 34.1519L349.698 52.9165H335.876Z" fill="#323E7A"/>
<path d="M365.155 17.4815L388.862 73.3566H397.574L421.282 17.4815H407.376L393.218 53.2516L379.061 17.4815H365.155Z" fill="#323E7A"/>
<path d="M459.291 17.4815H427.71V73.3566H459.291V62.4664H440.61V50.0683H458.37V39.1781H440.61V28.3717H459.291V17.4815Z" fill="#323E7A"/>
<path d="M469.759 17.4815V73.3566H500V62.4664H482.659V17.4815H469.759Z" fill="#323E7A"/>
<path d="M256.527 81.6709C245.386 81.6709 238.433 86.1107 234.663 89.8804C229.637 94.9067 226.034 103.032 226.034 111.074C226.034 119.284 229.385 126.823 234.747 131.85C238.935 135.871 246.056 140.059 256.527 140.059C265.909 140.059 272.946 136.876 278.14 131.85C284.171 125.986 286.852 118.362 286.852 110.907C286.852 102.278 283.417 94.9067 278.14 89.7966C272.527 84.3515 265.239 81.6709 256.527 81.6709ZM256.443 93.5663C261.553 93.5663 265.993 95.6606 268.758 98.3413C271.271 100.854 273.616 105.127 273.616 110.907C273.616 117.357 270.936 121.294 268.758 123.389C266.077 126.069 262.056 128.164 256.36 128.164C252.003 128.164 247.982 126.991 244.38 123.556C240.946 120.205 239.27 116.101 239.27 110.991C239.27 104.792 241.783 100.687 244.213 98.3413C247.228 95.3255 251.585 93.5663 256.443 93.5663Z" fill="#323E7A"/>
<path d="M336.827 122.216C331.885 127.075 327.361 127.996 324.01 127.996C317.141 127.996 313.12 124.478 311.947 123.305C309.434 120.876 307.089 116.771 307.089 110.991C307.089 105.629 309.267 101.106 312.366 98.0899C315.298 95.2417 319.068 93.7339 323.759 93.7339C329.707 93.7339 333.979 96.6658 336.827 99.6816V84.7704C331.382 82.4248 327.11 81.6709 323.424 81.6709C314.712 81.6709 307.507 84.9379 302.565 89.7129C297.539 94.5716 293.853 101.943 293.853 110.739C293.853 119.703 297.539 127.075 302.565 131.933C307.256 136.541 314.209 140.059 324.513 140.059C327.864 140.059 331.885 139.556 336.827 137.043V122.216Z" fill="#323E7A"/>
<path d="M378.919 93.8176V82.9274H341.725V93.8176H353.872V138.803H366.773V93.8176H378.919Z" fill="#323E7A"/>
<path d="M411.961 81.6709C400.82 81.6709 393.867 86.1107 390.097 89.8804C385.071 94.9067 381.469 103.032 381.469 111.074C381.469 119.284 384.819 126.823 390.181 131.85C394.369 135.871 401.49 140.059 411.961 140.059C421.343 140.059 428.38 136.876 433.574 131.85C439.605 125.986 442.286 118.362 442.286 110.907C442.286 102.278 438.852 94.9067 433.574 89.7966C427.961 84.3515 420.673 81.6709 411.961 81.6709ZM411.877 93.5663C416.987 93.5663 421.427 95.6606 424.192 98.3413C426.705 100.854 429.05 105.127 429.05 110.907C429.05 117.357 426.37 121.294 424.192 123.389C421.511 126.069 417.49 128.164 411.794 128.164C407.438 128.164 403.417 126.991 399.814 123.556C396.38 120.205 394.704 116.101 394.704 110.991C394.704 104.792 397.217 100.687 399.647 98.3413C402.663 95.3255 407.019 93.5663 411.877 93.5663Z" fill="#323E7A"/>
<path d="M447.394 137.232C447.394 138.3 448.232 139.138 449.3 139.138C450.368 139.138 451.206 138.3 451.206 137.232C451.206 136.164 450.368 135.326 449.3 135.326C448.232 135.326 447.394 136.164 447.394 137.232Z" fill="#FD8413"/>
<path d="M460.406 129.672C459.61 129.295 458.857 129.148 458.04 129.148C456.762 129.148 455.527 129.483 454.48 130.467C453.6 131.305 452.93 132.562 452.93 134.153C452.93 135.85 453.684 137.022 454.396 137.714C455.254 138.551 456.448 139.117 458.019 139.117C458.857 139.117 459.61 138.991 460.406 138.551V135.829C459.715 136.415 459.003 136.562 458.48 136.562C457.809 136.562 457.118 136.31 456.658 135.808C456.281 135.41 456.029 134.823 456.029 134.132C456.029 133.378 456.322 132.771 456.72 132.373C456.93 132.164 457.495 131.703 458.438 131.703C458.919 131.703 459.673 131.808 460.406 132.415V129.672Z" fill="#FD8413"/>
<path d="M472.923 134.132C472.923 132.939 472.462 131.598 471.52 130.656C470.682 129.818 469.258 129.148 467.436 129.148C465.614 129.148 464.19 129.818 463.352 130.656C462.41 131.598 461.949 132.939 461.949 134.132C461.949 135.326 462.41 136.666 463.352 137.609C464.19 138.447 465.614 139.117 467.436 139.117C469.258 139.117 470.682 138.447 471.52 137.609C472.462 136.666 472.923 135.326 472.923 134.132ZM467.436 131.703C468.127 131.703 468.693 131.933 469.132 132.373C469.572 132.813 469.823 133.378 469.823 134.132C469.823 134.886 469.572 135.452 469.132 135.891C468.693 136.331 468.127 136.562 467.457 136.562C466.661 136.562 466.117 136.268 465.74 135.891C465.384 135.535 465.049 134.991 465.049 134.132C465.049 133.378 465.3 132.813 465.74 132.373C466.179 131.933 466.745 131.703 467.436 131.703Z" fill="#FD8413"/>
<path d="M474.804 138.803H477.819V134.028C477.819 133.713 477.84 132.666 478.406 132.122C478.699 131.85 479.055 131.745 479.453 131.745C479.767 131.745 480.144 131.808 480.458 132.122C480.919 132.583 480.94 133.316 480.94 133.944V138.803H483.956V134.153C483.956 133.546 484.018 132.813 484.416 132.31C484.668 131.975 485.086 131.745 485.589 131.745C486.029 131.745 486.427 131.933 486.678 132.247C487.076 132.75 487.076 133.588 487.076 134.069V138.803H490.092V132.897C490.092 132.227 490.029 130.97 489.128 130.111C488.563 129.567 487.641 129.232 486.511 129.232C485.778 129.232 485.17 129.357 484.521 129.755C483.914 130.132 483.558 130.572 483.327 130.949C483.076 130.384 482.678 129.923 482.196 129.651C481.568 129.274 480.835 129.232 480.437 129.232C479.725 129.232 478.594 129.378 477.819 130.551V129.462H474.804V138.803Z" fill="#FD8413"/>
<path d="M232.987 124.841C232.987 123.095 242.15 124.841 243.895 123.095L249.567 126.586C248.695 127.459 239.532 131.822 232.987 124.841Z" fill="#DA6A02"/>
<path d="M243.895 123.095C245.64 124.841 233.424 123.968 233.424 124.841C237.787 129.64 245.64 128.767 249.131 126.15" stroke="black" stroke-opacity="0.2"/>
<defs>
<filter id="filter0_d" x="118.318" y="28.8575" width="52.1984" height="12.9227" filterUnits="userSpaceOnUse" color-interpolation-filters="sRGB">
<feFlood flood-opacity="0" result="BackgroundImageFix"/>
<feColorMatrix in="SourceAlpha" type="matrix" values="0 0 0 0 0 0 0 0 0 0 0 0 0 0 0 0 0 0 127 0"/>
<feOffset/>
<feGaussianBlur stdDeviation="1"/>
<feColorMatrix type="matrix" values="0 0 0 0 0 0 0 0 0 0 0 0 0 0 0 0 0 0 0.25 0"/>
<feBlend mode="normal" in2="BackgroundImageFix" result="effect1_dropShadow"/>
<feBlend mode="normal" in="SourceGraphic" in2="effect1_dropShadow" result="shape"/>
</filter>
<radialGradient id="paint0_radial" cx="0" cy="0" r="1" gradientUnits="userSpaceOnUse" gradientTransform="translate(139.182 125.277) rotate(90) scale(32.723 139.182)">
<stop stop-opacity="0.53"/>
<stop offset="1" stop-opacity="0"/>
</radialGradient>
<linearGradient id="paint1_linear" x1="89.0189" y1="39.185" x2="85.8777" y2="68.2073" gradientUnits="userSpaceOnUse">
<stop stop-color="white"/>
<stop offset="1" stop-color="#DDDDDD"/>
</linearGradient>
<linearGradient id="paint2_linear" x1="56.2835" y1="-11.2868" x2="207.682" y2="164.108" gradientUnits="userSpaceOnUse">
<stop stop-color="#FECDA0"/>
<stop offset="1" stop-color="#DA6900"/>
</linearGradient>
<radialGradient id="paint3_radial" cx="0" cy="0" r="1" gradientUnits="userSpaceOnUse" gradientTransform="translate(123.808 18.0741) rotate(90) scale(5.54365 5.56873)">
<stop stop-color="#DA6900"/>
<stop offset="0.598958" stop-color="#DA6900" stop-opacity="0.96875"/>
<stop offset="1" stop-color="#DA6900" stop-opacity="0"/>
</radialGradient>
<radialGradient id="paint4_radial" cx="0" cy="0" r="1" gradientUnits="userSpaceOnUse" gradientTransform="translate(137.719 108.877) rotate(90) scale(4.61971 4.712)">
<stop stop-color="#A75101"/>
<stop offset="0.598958" stop-color="#AE5400" stop-opacity="0.96875"/>
<stop offset="1" stop-color="#B55700" stop-opacity="0"/>
</radialGradient>
<radialGradient id="paint5_radial" cx="0" cy="0" r="1" gradientUnits="userSpaceOnUse" gradientTransform="translate(175.703 15.0456) rotate(90) scale(5.08168 5.14037)">
<stop stop-color="#DA6900"/>
<stop offset="0.598958" stop-color="#DA6900" stop-opacity="0.96875"/>
<stop offset="1" stop-color="#DA6900" stop-opacity="0"/>
</radialGradient>
<radialGradient id="paint6_radial" cx="0" cy="0" r="1" gradientUnits="userSpaceOnUse" gradientTransform="translate(133.253 11.6578) rotate(90) scale(3.2338 2.99855)">
<stop stop-color="#DA6900"/>
<stop offset="0.598958" stop-color="#DA6900" stop-opacity="0.96875"/>
<stop offset="1" stop-color="#DA6900" stop-opacity="0"/>
</radialGradient>
<radialGradient id="paint7_radial" cx="0" cy="0" r="1" gradientUnits="userSpaceOnUse" gradientTransform="translate(160.715 15.6102) rotate(90) scale(2.77183 2.57018)">
<stop stop-color="#DA6900"/>
<stop offset="0.598958" stop-color="#DA6900" stop-opacity="0.96875"/>
<stop offset="1" stop-color="#DA6900" stop-opacity="0"/>
</radialGradient>
<radialGradient id="paint8_radial" cx="0" cy="0" r="1" gradientUnits="userSpaceOnUse" gradientTransform="translate(154.606 8.62931) rotate(90) scale(2.77183 2.57018)">
<stop stop-color="#DA6900"/>
<stop offset="0.598958" stop-color="#DA6900" stop-opacity="0.96875"/>
<stop offset="1" stop-color="#DA6900" stop-opacity="0"/>
</radialGradient>
<radialGradient id="paint9_radial" cx="0" cy="0" r="1" gradientUnits="userSpaceOnUse" gradientTransform="translate(186.02 47.8969) rotate(90) scale(2.77183 2.57018)">
<stop stop-color="#DA6900"/>
<stop offset="0.598958" stop-color="#DA6900" stop-opacity="0.96875"/>
<stop offset="1" stop-color="#DA6900" stop-opacity="0"/>
</radialGradient>
<radialGradient id="paint10_radial" cx="0" cy="0" r="1" gradientUnits="userSpaceOnUse" gradientTransform="translate(187.766 34.8077) rotate(90) scale(2.77183 2.57018)">
<stop stop-color="#DA6900"/>
<stop offset="0.598958" stop-color="#DA6900" stop-opacity="0.96875"/>
<stop offset="1" stop-color="#DA6900" stop-opacity="0"/>
</radialGradient>
<radialGradient id="paint11_radial" cx="0" cy="0" r="1" gradientUnits="userSpaceOnUse" gradientTransform="translate(177.294 29.572) rotate(90) scale(2.77183 2.57018)">
<stop stop-color="#DA6900"/>
<stop offset="0.598958" stop-color="#DA6900" stop-opacity="0.96875"/>
<stop offset="1" stop-color="#DA6900" stop-opacity="0"/>
</radialGradient>
<radialGradient id="paint12_radial" cx="0" cy="0" r="1" gradientUnits="userSpaceOnUse" gradientTransform="translate(132.38 20.3839) rotate(90) scale(3.2338 2.99855)">
<stop stop-color="#DA6900"/>
<stop offset="0.598958" stop-color="#DA6900" stop-opacity="0.96875"/>
<stop offset="1" stop-color="#DA6900" stop-opacity="0"/>
</radialGradient>
<radialGradient id="paint13_radial" cx="0" cy="0" r="1" gradientUnits="userSpaceOnUse" gradientTransform="translate(113.234 25.5682) rotate(90) scale(4.15774 3.85528)">
<stop stop-color="#DA6900"/>
<stop offset="0.598958" stop-color="#DA6900" stop-opacity="0.96875"/>
<stop offset="1" stop-color="#DA6900" stop-opacity="0"/>
</radialGradient>
<radialGradient id="paint14_radial" cx="0" cy="0" r="1" gradientUnits="userSpaceOnUse" gradientTransform="translate(108.307 32.2412) rotate(90) scale(1.84788 1.71346)">
<stop stop-color="#DA6900"/>
<stop offset="0.598958" stop-color="#DA6900" stop-opacity="0.96875"/>
<stop offset="1" stop-color="#DA6900" stop-opacity="0"/>
</radialGradient>
<radialGradient id="paint15_radial" cx="0" cy="0" r="1" gradientUnits="userSpaceOnUse" gradientTransform="translate(112.67 36.6042) rotate(90) scale(1.84788 1.71346)">
<stop stop-color="#DA6900"/>
<stop offset="0.598958" stop-color="#DA6900" stop-opacity="0.96875"/>
<stop offset="1" stop-color="#DA6900" stop-opacity="0"/>
</radialGradient>
<radialGradient id="paint16_radial" cx="0" cy="0" r="1" gradientUnits="userSpaceOnUse" gradientTransform="translate(106.099 37.9388) rotate(90) scale(1.38591 1.28509)">
<stop stop-color="#DA6900"/>
<stop offset="0.598958" stop-color="#DA6900" stop-opacity="0.96875"/>
<stop offset="1" stop-color="#DA6900" stop-opacity="0"/>
</radialGradient>
<radialGradient id="paint17_radial" cx="0" cy="0" r="1" gradientUnits="userSpaceOnUse" gradientTransform="translate(119.188 24.8496) rotate(90) scale(1.38591 1.28509)">
<stop stop-color="#DA6900"/>
<stop offset="0.598958" stop-color="#DA6900" stop-opacity="0.96875"/>
<stop offset="1" stop-color="#DA6900" stop-opacity="0"/>
</radialGradient>
<radialGradient id="paint18_radial" cx="0" cy="0" r="1" gradientUnits="userSpaceOnUse" gradientTransform="translate(140.593 14.7889) rotate(90) scale(1.84788 1.71346)">
<stop stop-color="#DA6900"/>
<stop offset="0.598958" stop-color="#DA6900" stop-opacity="0.96875"/>
<stop offset="1" stop-color="#DA6900" stop-opacity="0"/>
</radialGradient>
<radialGradient id="paint19_radial" cx="0" cy="0" r="1" gradientUnits="userSpaceOnUse" gradientTransform="translate(143.211 9.55324) rotate(90) scale(1.84788 1.71346)">
<stop stop-color="#DA6900"/>
<stop offset="0.598958" stop-color="#DA6900" stop-opacity="0.96875"/>
<stop offset="1" stop-color="#DA6900" stop-opacity="0"/>
</radialGradient>
<radialGradient id="paint20_radial" cx="0" cy="0" r="1" gradientUnits="userSpaceOnUse" gradientTransform="translate(148.447 12.1711) rotate(90) scale(1.84788 1.71346)">
<stop stop-color="#DA6900"/>
<stop offset="0.598958" stop-color="#DA6900" stop-opacity="0.96875"/>
<stop offset="1" stop-color="#DA6900" stop-opacity="0"/>
</radialGradient>
<radialGradient id="paint21_radial" cx="0" cy="0" r="1" gradientUnits="userSpaceOnUse" gradientTransform="translate(148.395 6.98675) rotate(90) scale(0.923942 0.856728)">
<stop stop-color="#DA6900"/>
<stop offset="0.598958" stop-color="#DA6900" stop-opacity="0.96875"/>
<stop offset="1" stop-color="#DA6900" stop-opacity="0"/>
</radialGradient>
<radialGradient id="paint22_radial" cx="0" cy="0" r="1" gradientUnits="userSpaceOnUse" gradientTransform="translate(129.583 49.3598) rotate(27.8973) scale(16.785 15.5417)">
<stop stop-color="#F4F4F4"/>
<stop offset="0.75" stop-color="#F7F7F7"/>
<stop offset="1" stop-color="#C0C0C0"/>
</radialGradient>
<radialGradient id="paint23_radial" cx="0" cy="0" r="1" gradientUnits="userSpaceOnUse" gradientTransform="translate(148.344 44.1241) rotate(37.2664) scale(25.2191 23.351)">
<stop stop-color="#F4F4F4"/>
<stop offset="0.75" stop-color="#F7F7F7"/>
<stop offset="1" stop-color="#C0C0C0"/>
</radialGradient>
<linearGradient id="paint24_linear" x1="151.7" y1="45.2772" x2="162.799" y2="58.6696" gradientUnits="userSpaceOnUse">
<stop stop-color="#FFCC9C"/>
<stop offset="1" stop-color="#D26603"/>
</linearGradient>
<radialGradient id="paint25_radial" cx="0" cy="0" r="1" gradientUnits="userSpaceOnUse" gradientTransform="translate(154.452 48.4872) rotate(49.6287) scale(10.881 10.0932)">
<stop stop-color="#505050"/>
<stop offset="1"/>
</radialGradient>
<radialGradient id="paint26_radial" cx="0" cy="0" r="1" gradientUnits="userSpaceOnUse" gradientTransform="translate(153.58 48.4872) rotate(90) scale(3.05414 2.61784)">
<stop stop-color="white"/>
<stop offset="0.625" stop-color="white" stop-opacity="0.895833"/>
<stop offset="1" stop-color="white" stop-opacity="0"/>
</radialGradient>
<linearGradient id="paint27_linear" x1="127.267" y1="45.2772" x2="138.366" y2="58.6696" gradientUnits="userSpaceOnUse">
<stop stop-color="#FFCC9C"/>
<stop offset="1" stop-color="#D26603"/>
</linearGradient>
<radialGradient id="paint28_radial" cx="0" cy="0" r="1" gradientUnits="userSpaceOnUse" gradientTransform="translate(130.019 48.4872) rotate(49.6287) scale(10.881 10.0932)">
<stop stop-color="#505050"/>
<stop offset="1"/>
</radialGradient>
<radialGradient id="paint29_radial" cx="0" cy="0" r="1" gradientUnits="userSpaceOnUse" gradientTransform="translate(129.147 48.4872) rotate(90) scale(3.05414 2.61784)">
<stop stop-color="white"/>
<stop offset="0.625" stop-color="white" stop-opacity="0.895833"/>
<stop offset="1" stop-color="white" stop-opacity="0"/>
</radialGradient>
<radialGradient id="paint30_radial" cx="0" cy="0" r="1" gradientUnits="userSpaceOnUse" gradientTransform="translate(132.432 123.763) rotate(90) scale(3.69577 3.85528)">
<stop stop-color="#A75101"/>
<stop offset="0.598958" stop-color="#AE5400" stop-opacity="0.96875"/>
<stop offset="1" stop-color="#B55700" stop-opacity="0"/>
</radialGradient>
<radialGradient id="paint31_radial" cx="0" cy="0" r="1" gradientUnits="userSpaceOnUse" gradientTransform="translate(151.988 115.55) rotate(90) scale(2.30986 2.57018)">
<stop stop-color="#A75101"/>
<stop offset="0.598958" stop-color="#AE5400" stop-opacity="0.96875"/>
<stop offset="1" stop-color="#B55700" stop-opacity="0"/>
</radialGradient>
<radialGradient id="paint32_radial" cx="0" cy="0" r="1" gradientUnits="userSpaceOnUse" gradientTransform="translate(167.695 123.403) rotate(90) scale(2.30986 2.57018)">
<stop stop-color="#A75101"/>
<stop offset="0.598958" stop-color="#AE5400" stop-opacity="0.96875"/>
<stop offset="1" stop-color="#B55700" stop-opacity="0"/>
</radialGradient>
<radialGradient id="paint33_radial" cx="0" cy="0" r="1" gradientUnits="userSpaceOnUse" gradientTransform="translate(178.167 108.569) rotate(90) scale(2.30986 2.57018)">
<stop stop-color="#A75101"/>
<stop offset="0.598958" stop-color="#AE5400" stop-opacity="0.96875"/>
<stop offset="1" stop-color="#B55700" stop-opacity="0"/>
</radialGradient>
<radialGradient id="paint34_radial" cx="0" cy="0" r="1" gradientUnits="userSpaceOnUse" gradientTransform="translate(185.969 114.729) rotate(90) scale(1.38591 1.71346)">
<stop stop-color="#A75101"/>
<stop offset="0.598958" stop-color="#AE5400" stop-opacity="0.96875"/>
<stop offset="1" stop-color="#B55700" stop-opacity="0"/>
</radialGradient>
<radialGradient id="paint35_radial" cx="0" cy="0" r="1" gradientUnits="userSpaceOnUse" gradientTransform="translate(204.294 113.394) rotate(90) scale(1.84788 1.71346)">
<stop stop-color="#A75101"/>
<stop offset="0.598958" stop-color="#AE5400" stop-opacity="0.96875"/>
<stop offset="1" stop-color="#B55700" stop-opacity="0"/>
</radialGradient>
<radialGradient id="paint36_radial" cx="0" cy="0" r="1" gradientUnits="userSpaceOnUse" gradientTransform="translate(222.157 115.601) rotate(90) scale(1.38591 1.28509)">
<stop stop-color="#A75101"/>
<stop offset="0.598958" stop-color="#AE5400" stop-opacity="0.96875"/>
<stop offset="1" stop-color="#B55700" stop-opacity="0"/>
</radialGradient>
<radialGradient id="paint37_radial" cx="0" cy="0" r="1" gradientUnits="userSpaceOnUse" gradientTransform="translate(227.392 117.347) rotate(90) scale(1.38591 1.28509)">
<stop stop-color="#A75101"/>
<stop offset="0.598958" stop-color="#AE5400" stop-opacity="0.96875"/>
<stop offset="1" stop-color="#B55700" stop-opacity="0"/>
</radialGradient>
<radialGradient id="paint38_radial" cx="0" cy="0" r="1" gradientUnits="userSpaceOnUse" gradientTransform="translate(230.421 124.789) rotate(90) scale(0.923942 0.856728)">
<stop stop-color="#A75101"/>
<stop offset="0.598958" stop-color="#AE5400" stop-opacity="0.96875"/>
<stop offset="1" stop-color="#B55700" stop-opacity="0"/>
</radialGradient>
<radialGradient id="paint39_radial" cx="0" cy="0" r="1" gradientUnits="userSpaceOnUse" gradientTransform="translate(244.383 117.808) rotate(90) scale(0.923942 0.856728)">
<stop stop-color="#A75101"/>
<stop offset="0.598958" stop-color="#AE5400" stop-opacity="0.96875"/>
<stop offset="1" stop-color="#B55700" stop-opacity="0"/>
</radialGradient>
<radialGradient id="paint40_radial" cx="0" cy="0" r="1" gradientUnits="userSpaceOnUse" gradientTransform="translate(249.618 122.172) rotate(90) scale(0.923942 0.856728)">
<stop stop-color="#A75101"/>
<stop offset="0.598958" stop-color="#AE5400" stop-opacity="0.96875"/>
<stop offset="1" stop-color="#B55700" stop-opacity="0"/>
</radialGradient>
<radialGradient id="paint41_radial" cx="0" cy="0" r="1" gradientUnits="userSpaceOnUse" gradientTransform="translate(241.765 125.662) rotate(90) scale(0.923942 0.856728)">
<stop stop-color="#A75101"/>
<stop offset="0.598958" stop-color="#AE5400" stop-opacity="0.96875"/>
<stop offset="1" stop-color="#B55700" stop-opacity="0"/>
</radialGradient>
<radialGradient id="paint42_radial" cx="0" cy="0" r="1" gradientUnits="userSpaceOnUse" gradientTransform="translate(215.638 117.347) rotate(90) scale(1.38591 1.71346)">
<stop stop-color="#A75101"/>
<stop offset="0.598958" stop-color="#AE5400" stop-opacity="0.96875"/>
<stop offset="1" stop-color="#B55700" stop-opacity="0"/>
</radialGradient>
<radialGradient id="paint43_radial" cx="0" cy="0" r="1" gradientUnits="userSpaceOnUse" gradientTransform="translate(167.695 137.365) rotate(90) scale(2.30986 2.57018)">
<stop stop-color="#A75101"/>
<stop offset="0.598958" stop-color="#AE5400" stop-opacity="0.96875"/>
<stop offset="1" stop-color="#B55700" stop-opacity="0"/>
</radialGradient>
<radialGradient id="paint44_radial" cx="0" cy="0" r="1" gradientUnits="userSpaceOnUse" gradientTransform="translate(177.243 145.27) rotate(90) scale(1.38591 1.71346)">
<stop stop-color="#A75101"/>
<stop offset="0.598958" stop-color="#AE5400" stop-opacity="0.96875"/>
<stop offset="1" stop-color="#B55700" stop-opacity="0"/>
</radialGradient>
<radialGradient id="paint45_radial" cx="0" cy="0" r="1" gradientUnits="userSpaceOnUse" gradientTransform="translate(182.479 149.633) rotate(90) scale(1.38591 1.71346)">
<stop stop-color="#A75101"/>
<stop offset="0.598958" stop-color="#AE5400" stop-opacity="0.96875"/>
<stop offset="1" stop-color="#B55700" stop-opacity="0"/>
</radialGradient>
<radialGradient id="paint46_radial" cx="0" cy="0" r="1" gradientUnits="userSpaceOnUse" gradientTransform="translate(193.823 147.015) rotate(90) scale(1.38591 1.71346)">
<stop stop-color="#A75101"/>
<stop offset="0.598958" stop-color="#AE5400" stop-opacity="0.96875"/>
<stop offset="1" stop-color="#B55700" stop-opacity="0"/>
</radialGradient>
<radialGradient id="paint47_radial" cx="0" cy="0" r="1" gradientUnits="userSpaceOnUse" gradientTransform="translate(199.058 139.162) rotate(90) scale(1.38591 1.71346)">
<stop stop-color="#A75101"/>
<stop offset="0.598958" stop-color="#AE5400" stop-opacity="0.96875"/>
<stop offset="1" stop-color="#B55700" stop-opacity="0"/>
</radialGradient>
<radialGradient id="paint48_radial" cx="0" cy="0" r="1" gradientUnits="userSpaceOnUse" gradientTransform="translate(118.829 126.432) rotate(90) scale(2.77183 2.57018)">
<stop stop-color="#A75101"/>
<stop offset="0.598958" stop-color="#AE5400" stop-opacity="0.96875"/>
<stop offset="1" stop-color="#B55700" stop-opacity="0"/>
</radialGradient>
<radialGradient id="paint49_radial" cx="0" cy="0" r="1" gradientUnits="userSpaceOnUse" gradientTransform="translate(110.616 110.725) rotate(90) scale(2.77183 3.85528)">
<stop stop-color="#A75101"/>
<stop offset="0.598958" stop-color="#AE5400" stop-opacity="0.96875"/>
<stop offset="1" stop-color="#B55700" stop-opacity="0"/>
</radialGradient>
<radialGradient id="paint50_radial" cx="0" cy="0" r="1" gradientUnits="userSpaceOnUse" gradientTransform="translate(111.848 95.8392) rotate(90) scale(3.69577 2.57018)">
<stop stop-color="#A75101"/>
<stop offset="0.598958" stop-color="#AE5400" stop-opacity="0.96875"/>
<stop offset="1" stop-color="#B55700" stop-opacity="0"/>
</radialGradient>
<radialGradient id="paint51_radial" cx="0" cy="0" r="1" gradientUnits="userSpaceOnUse" gradientTransform="translate(97.9104 97.9365) rotate(90) scale(3.2338 2.14182)">
<stop stop-color="#A75101"/>
<stop offset="0.598958" stop-color="#AE5400" stop-opacity="0.96875"/>
<stop offset="1" stop-color="#B55700" stop-opacity="0"/>
</radialGradient>
<radialGradient id="paint52_radial" cx="0" cy="0" r="1" gradientUnits="userSpaceOnUse" gradientTransform="translate(79.5115 89.0175) rotate(90) scale(1.98743 1.31632)">
<stop stop-color="#A75101"/>
<stop offset="0.598958" stop-color="#AE5400" stop-opacity="0.96875"/>
<stop offset="1" stop-color="#B55700" stop-opacity="0"/>
</radialGradient>
<radialGradient id="paint53_radial" cx="0" cy="0" r="1" gradientUnits="userSpaceOnUse" gradientTransform="translate(77.2991 78.5461) rotate(90) scale(1.98743 1.31632)">
<stop stop-color="#A75101"/>
<stop offset="0.598958" stop-color="#AE5400" stop-opacity="0.96875"/>
<stop offset="1" stop-color="#B55700" stop-opacity="0"/>
</radialGradient>
<radialGradient id="paint54_radial" cx="0" cy="0" r="1" gradientUnits="userSpaceOnUse" gradientTransform="translate(182.885 95.1258) rotate(90) scale(1.98743 1.31632)">
<stop stop-color="#A75101"/>
<stop offset="0.598958" stop-color="#AE5400" stop-opacity="0.96875"/>
<stop offset="1" stop-color="#B55700" stop-opacity="0"/>
</radialGradient>
<radialGradient id="paint55_radial" cx="0" cy="0" r="1" gradientUnits="userSpaceOnUse" gradientTransform="translate(210.809 76.8009) rotate(90) scale(1.98743 1.31632)">
<stop stop-color="#A75101"/>
<stop offset="0.598958" stop-color="#AE5400" stop-opacity="0.96875"/>
<stop offset="1" stop-color="#B55700" stop-opacity="0"/>
</radialGradient>
<radialGradient id="paint56_radial" cx="0" cy="0" r="1" gradientUnits="userSpaceOnUse" gradientTransform="translate(205.444 91.2817) rotate(90) scale(2.86347 1.89654)">
<stop stop-color="#A75101"/>
<stop offset="0.598958" stop-color="#AE5400" stop-opacity="0.96875"/>
<stop offset="1" stop-color="#B55700" stop-opacity="0"/>
</radialGradient>
<radialGradient id="paint57_radial" cx="0" cy="0" r="1" gradientUnits="userSpaceOnUse" gradientTransform="translate(193.478 98.4926) rotate(90) scale(2.86347 1.89654)">
<stop stop-color="#A75101"/>
<stop offset="0.598958" stop-color="#AE5400" stop-opacity="0.96875"/>
<stop offset="1" stop-color="#B55700" stop-opacity="0"/>
</radialGradient>
<radialGradient id="paint58_radial" cx="0" cy="0" r="1" gradientUnits="userSpaceOnUse" gradientTransform="translate(67.5493 113.897) rotate(90) scale(1.96586 2.12666)">
<stop stop-color="#A75101"/>
<stop offset="0.598958" stop-color="#AE5400" stop-opacity="0.96875"/>
<stop offset="1" stop-color="#B55700" stop-opacity="0"/>
</radialGradient>
<radialGradient id="paint59_radial" cx="0" cy="0" r="1" gradientUnits="userSpaceOnUse" gradientTransform="translate(81.1225 112.106) rotate(90) scale(0.898975 0.972507)">
<stop stop-color="#A75101"/>
<stop offset="0.598958" stop-color="#AE5400" stop-opacity="0.96875"/>
<stop offset="1" stop-color="#B55700" stop-opacity="0"/>
</radialGradient>
<radialGradient id="paint60_radial" cx="0" cy="0" r="1" gradientUnits="userSpaceOnUse" gradientTransform="translate(96.1927 115.713) rotate(90) scale(2.66685 2.88498)">
<stop stop-color="#A75101"/>
<stop offset="0.598958" stop-color="#AE5400" stop-opacity="0.96875"/>
<stop offset="1" stop-color="#B55700" stop-opacity="0"/>
</radialGradient>
<radialGradient id="paint61_radial" cx="0" cy="0" r="1" gradientUnits="userSpaceOnUse" gradientTransform="translate(119.65 139.572) rotate(90) scale(1.84788 1.71346)">
<stop stop-color="#A75101"/>
<stop offset="0.598958" stop-color="#AE5400" stop-opacity="0.96875"/>
<stop offset="1" stop-color="#B55700" stop-opacity="0"/>
</radialGradient>
<radialGradient id="paint62_radial" cx="0" cy="0" r="1" gradientUnits="userSpaceOnUse" gradientTransform="translate(103.944 147.426) rotate(90) scale(1.84788 1.71346)">
<stop stop-color="#A75101"/>
<stop offset="0.598958" stop-color="#AE5400" stop-opacity="0.96875"/>
<stop offset="1" stop-color="#B55700" stop-opacity="0"/>
</radialGradient>
<radialGradient id="paint63_radial" cx="0" cy="0" r="1" gradientUnits="userSpaceOnUse" gradientTransform="translate(95.628 145.27) rotate(90) scale(1.38591 1.28509)">
<stop stop-color="#A75101"/>
<stop offset="0.598958" stop-color="#AE5400" stop-opacity="0.96875"/>
<stop offset="1" stop-color="#B55700" stop-opacity="0"/>
</radialGradient>
<radialGradient id="paint64_radial" cx="0" cy="0" r="1" gradientUnits="userSpaceOnUse" gradientTransform="translate(107.845 134.799) rotate(90) scale(1.38591 1.28509)">
<stop stop-color="#A75101"/>
<stop offset="0.598958" stop-color="#AE5400" stop-opacity="0.96875"/>
<stop offset="1" stop-color="#B55700" stop-opacity="0"/>
</radialGradient>
<radialGradient id="paint65_radial" cx="0" cy="0" r="1" gradientUnits="userSpaceOnUse" gradientTransform="translate(98.6565 140.496) rotate(90) scale(0.923942 0.856728)">
<stop stop-color="#A75101"/>
<stop offset="0.598958" stop-color="#AE5400" stop-opacity="0.96875"/>
<stop offset="1" stop-color="#B55700" stop-opacity="0"/>
</radialGradient>
<radialGradient id="paint66_radial" cx="0" cy="0" r="1" gradientUnits="userSpaceOnUse" gradientTransform="translate(88.6471 140.445) rotate(90) scale(1.84788 1.28509)">
<stop stop-color="#A75101"/>
<stop offset="0.598958" stop-color="#AE5400" stop-opacity="0.96875"/>
<stop offset="1" stop-color="#B55700" stop-opacity="0"/>
</radialGradient>
<linearGradient id="paint67_linear" x1="192.847" y1="74.6655" x2="206.373" y2="89.9362" gradientUnits="userSpaceOnUse">
<stop stop-color="#434F8E"/>
<stop offset="1" stop-color="#131E55"/>
</linearGradient>
<radialGradient id="paint68_radial" cx="0" cy="0" r="1" gradientUnits="userSpaceOnUse" gradientTransform="translate(206.446 65.457) rotate(90) scale(1.98743 1.31632)">
<stop stop-color="#A75101"/>
<stop offset="0.598958" stop-color="#AE5400" stop-opacity="0.96875"/>
<stop offset="1" stop-color="#B55700" stop-opacity="0"/>
</radialGradient>
</defs>
</svg>
