<svg width="276" height="124" viewBox="0 0 276 124" fill="none" xmlns="http://www.w3.org/2000/svg">
<path d="M37.8121 11.3717V0.481476H0.61792V11.3717H12.7647V56.3566H25.6654V11.3717H37.8121Z" fill="#323E7A"/>
<path d="M44.5943 0.481476V56.3566H57.495V34.3249L72.5738 56.3566H88.3227L71.1497 33.4872C74.2492 32.7332 77.0136 31.0578 78.9403 29.2149C82.5425 25.6965 83.2964 21.3404 83.2964 17.822C83.2964 11.623 80.7833 7.602 78.4377 5.34018C75.757 2.82706 71.3172 0.481476 64.1967 0.481476H44.5943ZM57.495 10.534H60.5108C62.1862 10.534 65.537 10.7015 67.6313 12.2932C68.7203 13.1309 70.2282 14.8063 70.2282 17.9896C70.2282 20.754 69.0554 22.5132 68.1339 23.4347C65.9559 25.6127 62.7726 25.864 60.427 25.864H57.495V10.534Z" fill="#323E7A"/>
<path d="M133.405 56.3566H146.808L124.777 0.481476H112.965L90.4307 56.3566H103.834L108.106 45.8015H129.217L133.405 56.3566ZM111.876 35.9165L118.829 17.1519L125.698 35.9165H111.876Z" fill="#323E7A"/>
<path d="M141.155 0.481476L164.862 56.3566H173.574L197.282 0.481476H183.376L169.218 36.2516L155.061 0.481476H141.155Z" fill="#323E7A"/>
<path d="M235.291 0.481476H203.71V56.3566H235.291V45.4664H216.61V33.0683H234.37V22.1781H216.61V11.3717H235.291V0.481476Z" fill="#323E7A"/>
<path d="M245.759 0.481476V56.3566H276V45.4664H258.659V0.481476H245.759Z" fill="#323E7A"/>
<path d="M32.5271 64.6709C21.3855 64.6709 14.4326 69.1107 10.6629 72.8804C5.63663 77.9067 2.03448 86.0324 2.03448 94.0744C2.03448 102.284 5.38532 109.823 10.7466 114.85C14.9352 118.871 22.0557 123.059 32.5271 123.059C41.9094 123.059 48.9461 119.876 54.1399 114.85C60.1714 108.986 62.8521 101.362 62.8521 93.9069C62.8521 85.2785 59.4175 77.9067 54.1399 72.7966C48.5273 67.3515 41.2392 64.6709 32.5271 64.6709ZM32.4433 76.5663C37.5533 76.5663 41.9932 78.6606 44.7576 81.3413C47.2707 83.8544 49.6163 88.1267 49.6163 93.9069C49.6163 100.357 46.9356 104.294 44.7576 106.389C42.0769 109.069 38.0559 111.164 32.3595 111.164C28.0034 111.164 23.9824 109.991 20.3803 106.556C16.9457 103.205 15.2703 99.1007 15.2703 93.9906C15.2703 87.7916 17.7834 83.6868 20.2127 81.3413C23.2285 78.3255 27.5846 76.5663 32.4433 76.5663Z" fill="#323E7A"/>
<path d="M112.827 105.216C107.885 110.075 103.361 110.996 100.01 110.996C93.1411 110.996 89.1201 107.478 87.9473 106.305C85.4342 103.876 83.0886 99.7708 83.0886 93.9906C83.0886 88.6293 85.2667 84.1057 88.3662 81.0899C91.2982 78.2417 95.0678 76.7339 99.759 76.7339C105.707 76.7339 109.979 79.6658 112.827 82.6816V67.7704C107.382 65.4248 103.11 64.6709 99.4239 64.6709C90.7118 64.6709 83.5075 67.9379 78.565 72.7129C73.5387 77.5716 69.8528 84.9434 69.8528 93.7393C69.8528 102.703 73.5387 110.075 78.565 114.933C83.2562 119.541 90.2091 123.059 100.513 123.059C103.864 123.059 107.885 122.556 112.827 120.043V105.216Z" fill="#323E7A"/>
<path d="M154.919 76.8176V65.9274H117.725V76.8176H129.872V121.803H142.773V76.8176H154.919Z" fill="#323E7A"/>
<path d="M187.961 64.6709C176.82 64.6709 169.867 69.1107 166.097 72.8804C161.071 77.9067 157.469 86.0324 157.469 94.0744C157.469 102.284 160.819 109.823 166.181 114.85C170.369 118.871 177.49 123.059 187.961 123.059C197.343 123.059 204.38 119.876 209.574 114.85C215.605 108.986 218.286 101.362 218.286 93.9069C218.286 85.2785 214.852 77.9067 209.574 72.7966C203.961 67.3515 196.673 64.6709 187.961 64.6709ZM187.877 76.5663C192.987 76.5663 197.427 78.6606 200.192 81.3413C202.705 83.8544 205.05 88.1267 205.05 93.9069C205.05 100.357 202.37 104.294 200.192 106.389C197.511 109.069 193.49 111.164 187.794 111.164C183.438 111.164 179.417 109.991 175.814 106.556C172.38 103.205 170.704 99.1007 170.704 93.9906C170.704 87.7916 173.217 83.6868 175.647 81.3413C178.663 78.3255 183.019 76.5663 187.877 76.5663Z" fill="#323E7A"/>
<path d="M223.394 120.232C223.394 121.3 224.232 122.138 225.3 122.138C226.368 122.138 227.206 121.3 227.206 120.232C227.206 119.164 226.368 118.326 225.3 118.326C224.232 118.326 223.394 119.164 223.394 120.232Z" fill="#FD8413"/>
<path d="M236.406 112.672C235.61 112.295 234.857 112.148 234.04 112.148C232.762 112.148 231.527 112.483 230.48 113.467C229.6 114.305 228.93 115.562 228.93 117.153C228.93 118.85 229.684 120.022 230.396 120.714C231.254 121.551 232.448 122.117 234.019 122.117C234.857 122.117 235.61 121.991 236.406 121.551V118.829C235.715 119.415 235.003 119.562 234.48 119.562C233.809 119.562 233.118 119.31 232.658 118.808C232.281 118.41 232.029 117.823 232.029 117.132C232.029 116.378 232.322 115.771 232.72 115.373C232.93 115.164 233.495 114.703 234.438 114.703C234.919 114.703 235.673 114.808 236.406 115.415V112.672Z" fill="#FD8413"/>
<path d="M248.923 117.132C248.923 115.939 248.462 114.598 247.52 113.656C246.682 112.818 245.258 112.148 243.436 112.148C241.614 112.148 240.19 112.818 239.352 113.656C238.41 114.598 237.949 115.939 237.949 117.132C237.949 118.326 238.41 119.666 239.352 120.609C240.19 121.447 241.614 122.117 243.436 122.117C245.258 122.117 246.682 121.447 247.52 120.609C248.462 119.666 248.923 118.326 248.923 117.132ZM243.436 114.703C244.127 114.703 244.693 114.933 245.132 115.373C245.572 115.813 245.823 116.378 245.823 117.132C245.823 117.886 245.572 118.452 245.132 118.891C244.693 119.331 244.127 119.562 243.457 119.562C242.661 119.562 242.117 119.268 241.74 118.891C241.384 118.535 241.049 117.991 241.049 117.132C241.049 116.378 241.3 115.813 241.74 115.373C242.179 114.933 242.745 114.703 243.436 114.703Z" fill="#FD8413"/>
<path d="M250.804 121.803H253.819V117.028C253.819 116.713 253.84 115.666 254.406 115.122C254.699 114.85 255.055 114.745 255.453 114.745C255.767 114.745 256.144 114.808 256.458 115.122C256.919 115.583 256.94 116.316 256.94 116.944V121.803H259.956V117.153C259.956 116.546 260.018 115.813 260.416 115.31C260.668 114.975 261.086 114.745 261.589 114.745C262.029 114.745 262.427 114.933 262.678 115.247C263.076 115.75 263.076 116.588 263.076 117.069V121.803H266.092V115.897C266.092 115.227 266.029 113.97 265.128 113.111C264.563 112.567 263.641 112.232 262.511 112.232C261.778 112.232 261.17 112.357 260.521 112.755C259.914 113.132 259.558 113.572 259.327 113.949C259.076 113.384 258.678 112.923 258.196 112.651C257.568 112.274 256.835 112.232 256.437 112.232C255.725 112.232 254.594 112.378 253.819 113.551V112.462H250.804V121.803Z" fill="#FD8413"/>
</svg>
